<svg viewBox="0 0 1024 1024" version="1.1" xmlns="http://www.w3.org/2000/svg"><path d="M0 0m182.570457 0l658.859086 0q182.570457 0 182.570457 182.570457l0 658.859086q0 182.570457-182.570457 182.570457l-658.859086 0q-182.570457 0-182.570457-182.570457l0-658.859086q0-182.570457 182.570457-182.570457Z" fill="#845EC2" /><path d="M235.991464 239.366789m73.499862 0l106.690557 0q73.499863 0 73.499863 73.499862l0 106.690557q0 73.499863-73.499863 73.499863l-106.690557 0q-73.499863 0-73.499862-73.499863l0-106.690557q0-73.499863 73.499862-73.499862Z" fill="#FFFFFF" opacity=".56" /><path d="M235.991464 530.964566m73.499862 0l106.690557 0q73.499863 0 73.499863 73.499862l0 106.690558q0 73.499863-73.499863 73.499862l-106.690557 0q-73.499863 0-73.499862-73.499862l0-106.690558q0-73.499863 73.499862-73.499862Z" fill="#FFFFFF" opacity=".56" /><path d="M534.339891 530.964566m73.499862 0l106.690557 0q73.499863 0 73.499863 73.499862l0 106.690558q0 73.499863-73.499863 73.499862l-106.690557 0q-73.499863 0-73.499862-73.499862l0-106.690558q0-73.499863 73.499862-73.499862Z" fill="#FFFFFF" opacity=".56" /><path d="M659.248547 369.489889m-127.461787 0a127.461787 127.461787 0 1 0 254.923574 0 127.461787 127.461787 0 1 0-254.923574 0Z" fill="#FFFFFF" opacity=".56" /><path d="M285.690959 289.066284m44.701417 0l64.888457 0q44.701418 0 44.701418 44.701417l0 64.888457q0 44.701418-44.701418 44.701418l-64.888457 0q-44.701418 0-44.701417-44.701418l0-64.888457q0-44.701418 44.701417-44.701417Z" fill="#FFFFFF" opacity=".56" /><path d="M285.690959 580.664061m44.701417 0l64.888457 0q44.701418 0 44.701418 44.701417l0 64.888457q0 44.701418-44.701418 44.701418l-64.888457 0q-44.701418 0-44.701417-44.701418l0-64.888457q0-44.701418 44.701417-44.701417Z" fill="#FFFFFF" opacity=".56" /><path d="M584.039386 580.664061m44.701417 0l64.888457 0q44.701418 0 44.701418 44.701417l0 64.888457q0 44.701418-44.701418 44.701418l-64.888457 0q-44.701418 0-44.701417-44.701418l0-64.888457q0-44.701418 44.701417-44.701417Z" fill="#FFFFFF" opacity=".56" /><path d="M655.591945 370.917912m-76.420816 0a76.420817 76.420817 0 1 0 152.841633 0 76.420817 76.420817 0 1 0-152.841633 0Z" fill="#FFFFFF" opacity=".56" /></svg>