<svg viewBox="0 0 1024 1024" version="1.1" xmlns="http://www.w3.org/2000/svg"><path d="M642.88 1012.12h-262.5c-203.65 0-368.75-165.09-368.75-368.75v-262.5c0-203.65 165.1-368.75 368.75-368.75h262.5c203.65 0 368.75 165.1 368.75 368.75v262.5c0 203.65-165.1 368.75-368.75 368.75z" fill="#9966ff" /><path d="M679.19 769.39c-8.62 0-16.63-0.94-23.85-2.37-77.45-15.37-133.08-130.27-166.1-223.96-7.41-21.01-15.08-41.41-22.79-60.63l-7.59-19.13c-37.33-94.37-63.44-152.21-127.28-152.21-58.25 0-110.73 135.62-127.01 201.31-3.76 15.06-19.1 24.24-34.06 20.53-15.08-3.74-24.28-18.97-20.56-34.05 6.18-24.98 63.7-244.04 181.63-244.04 105.32 0 143.08 95.46 179.59 187.78l7.51 18.9c8 19.93 15.94 41.08 23.62 62.83 38.07 108.04 85.58 179.88 123.99 187.5C727.36 723.9 782.85 646.36 818.68 499c3.67-15.1 18.86-24.33 33.97-20.69 15.1 3.67 24.35 18.88 20.69 33.97C821 727.46 736.81 769.39 679.19 769.39z" fill="#FFFFFF" /><path d="M261.78 532.39h-12.5c-8.63 0-15.63-6.99-15.63-15.63s6.99-15.63 15.63-15.63h12.5c8.63 0 15.63 6.99 15.63 15.63s-7 15.63-15.63 15.63zM680.13 532.39h-23.24c-8.63 0-15.63-6.99-15.63-15.63s6.99-15.63 15.63-15.63h23.24c8.63 0 15.63 6.99 15.63 15.63s-6.99 15.63-15.63 15.63z m-104.59 0H552.3c-8.63 0-15.63-6.99-15.63-15.63s6.99-15.63 15.63-15.63h23.24c8.63 0 15.63 6.99 15.63 15.63s-6.99 15.63-15.63 15.63z m-104.58 0h-23.24c-8.63 0-15.63-6.99-15.63-15.63s6.99-15.63 15.63-15.63h23.24c8.63 0 15.63 6.99 15.63 15.63s-7 15.63-15.63 15.63z m-104.59 0h-23.24c-8.63 0-15.63-6.99-15.63-15.63s6.99-15.63 15.63-15.63h23.24c8.63 0 15.63 6.99 15.63 15.63s-7 15.63-15.63 15.63zM773.98 532.39h-12.5c-8.63 0-15.63-6.99-15.63-15.63s6.99-15.63 15.63-15.63h12.5c8.63 0 15.63 6.99 15.63 15.63s-7 15.63-15.63 15.63z" fill="#FFFFFF" /></svg>