<svg viewBox="0 0 1024 1024" version="1.1" xmlns="http://www.w3.org/2000/svg"><path d="M643.3792 87.8592H219.8016c-75.0592 0-135.936 60.8768-135.936 135.936v580.4032c0 75.0592 60.8768 135.936 135.936 135.936h510.1568c75.0592 0 135.936-60.8768 135.936-135.936V325.2736c0-19.456-7.2192-38.1952-20.2752-52.6336L701.44 113.5616a78.336 78.336 0 0 0-58.0608-25.7024z" fill="#4BE2AC" /><path d="M634.5216 592.128H236.8c-22.6304 0-40.96-18.3296-40.96-40.96s18.3296-40.96 40.96-40.96h397.7216c22.6304 0 40.96 18.3296 40.96 40.96s-18.3296 40.96-40.96 40.96zM477.6448 359.424H236.8c-22.6304 0-40.96-18.3296-40.96-40.96s18.3296-40.96 40.96-40.96h240.8448c22.6304 0 40.96 18.3296 40.96 40.96s-18.3296 40.96-40.96 40.96z" fill="#FFFFFF" /><path d="M609.1776 87.8592v210.9952c0 30.6688 24.832 55.5008 55.5008 55.5008h201.1648v-29.0816c0-19.456-7.2192-38.1952-20.2752-52.6336L701.44 113.5616a78.3872 78.3872 0 0 0-58.0608-25.7536h-34.2016z" fill="#06CC76" /><path d="M948.3776 744.1408l-85.7088-96.1536a40.98048 40.98048 0 0 0-61.184 54.528l25.5488 28.672h-278.3744c-22.6304 0-40.96 18.3296-40.96 40.96s18.3296 40.96 40.96 40.96h278.8864l-28.1088 32.512a41.00608 41.00608 0 0 0 4.1472 57.8048 40.77568 40.77568 0 0 0 26.7776 9.984c11.4688 0 22.8864-4.8128 30.976-14.1312l87.3984-100.9664a41.13408 41.13408 0 0 0-0.3584-54.1696z" fill="#4BE2AC" /><path d="M865.8944 651.6224l-3.2256-3.6352a40.98048 40.98048 0 0 0-61.184 54.528l25.5488 28.672h-278.3744c-22.6304 0-40.96 18.3296-40.96 40.96s18.3296 40.96 40.96 40.96h278.8864l-28.1088 32.512a41.00608 41.00608 0 0 0 4.1472 57.8048c3.4816 3.0208 7.3216 5.2736 11.3152 6.912 31.0784-24.9344 50.9952-63.1808 50.9952-106.0864v-152.6272z" fill="#06CC76" /></svg>