<svg viewBox="0 0 1024 1024" version="1.1" xmlns="http://www.w3.org/2000/svg"><path d="M891.2896 845.2608h-244.2752V179.0464c0-49.3568-39.9872-89.344-89.344-89.344H265.0112c-49.3568 0-89.344 39.9872-89.344 89.344v666.2144h-45.8752a39.68 39.68 0 0 0 0 79.36h761.4976a39.68 39.68 0 0 0 0-79.36z" fill="#F85F69" /><path d="M275.4048 262.912h80.5888v80.5888H275.4048zM275.4048 444.8256h80.5888v80.5888H275.4048zM275.4048 627.9168h80.5888v80.5888H275.4048zM405.2992 262.912H485.888v80.5888H405.2992z" fill="#FFFFFF" /><path d="M938.7008 504.3712c6.6048-132.608-97.6384-246.7328-230.3488-244.7872-124.0064 1.8432-223.9488 102.912-223.9488 227.328 0 135.0656 102.0416 285.5424 202.752 351.4368a43.44832 43.44832 0 0 0 48.0256-0.3072c98.4064-66.3552 196.1984-187.4432 203.52-333.6704z" fill="#F498A6" /><path d="M647.0144 807.68V269.0048C552.96 296.8576 484.352 383.8464 484.352 486.9632c0 117.0432 76.6976 245.6064 162.6624 320.7168zM707.84 845.2608c2.048 0.1536 4.0448 0.1536 6.0928 0h-6.0928z" fill="#F33B3D" /><path d="M711.68 644.608c-86.9376 0-157.6448-70.7072-157.6448-157.6448 0-86.9376 70.7072-157.6448 157.6448-157.6448 86.9376 0 157.6448 70.7072 157.6448 157.6448 0 86.8864-70.7072 157.6448-157.6448 157.6448z m0-233.3696c-41.7792 0-75.7248 33.9456-75.7248 75.7248s33.9456 75.7248 75.7248 75.7248 75.7248-33.9456 75.7248-75.7248-33.9968-75.7248-75.7248-75.7248z" fill="#FFFFFF" /></svg>