<svg width="331" height="117" viewBox="0 0 331 117" fill="none" xmlns="http://www.w3.org/2000/svg">
<path d="M86.0341 42.0909H95.1364L104.75 65.5455H105.159L114.773 42.0909H123.875V77H116.716V54.2784H116.426L107.392 76.8295H102.517L93.483 54.1932H93.1932V77H86.0341V42.0909ZM137.286 77.4943C135.615 77.4943 134.126 77.2045 132.82 76.625C131.513 76.0341 130.479 75.1648 129.717 74.017C128.967 72.858 128.592 71.4148 128.592 69.6875C128.592 68.233 128.859 67.0114 129.393 66.0227C129.928 65.0341 130.655 64.2386 131.575 63.6364C132.496 63.0341 133.541 62.5795 134.712 62.2727C135.893 61.9659 137.132 61.75 138.428 61.625C139.95 61.4659 141.178 61.3182 142.109 61.1818C143.041 61.0341 143.717 60.8182 144.138 60.5341C144.558 60.25 144.768 59.8295 144.768 59.2727V59.1705C144.768 58.0909 144.428 57.2557 143.746 56.6648C143.075 56.0739 142.121 55.7784 140.882 55.7784C139.575 55.7784 138.536 56.0682 137.763 56.6477C136.99 57.2159 136.479 57.9318 136.229 58.7955L129.513 58.25C129.854 56.6591 130.524 55.2841 131.524 54.125C132.524 52.9545 133.814 52.0568 135.393 51.4318C136.984 50.7955 138.825 50.4773 140.916 50.4773C142.371 50.4773 143.763 50.6477 145.092 50.9886C146.433 51.3295 147.621 51.858 148.655 52.5739C149.7 53.2898 150.524 54.2102 151.126 55.3352C151.729 56.4489 152.03 57.7841 152.03 59.3409V77H145.143V73.3693H144.939C144.518 74.1875 143.956 74.9091 143.251 75.5341C142.547 76.1477 141.7 76.6307 140.712 76.983C139.723 77.3239 138.581 77.4943 137.286 77.4943ZM139.365 72.483C140.433 72.483 141.376 72.2727 142.195 71.8523C143.013 71.4205 143.655 70.8409 144.121 70.1136C144.587 69.3864 144.82 68.5625 144.82 67.642V64.8636C144.592 65.0114 144.28 65.1477 143.882 65.2727C143.496 65.3864 143.058 65.4943 142.57 65.5966C142.081 65.6875 141.592 65.7727 141.104 65.8523C140.615 65.9205 140.172 65.983 139.774 66.0398C138.922 66.1648 138.178 66.3636 137.541 66.6364C136.905 66.9091 136.411 67.2784 136.058 67.7443C135.706 68.1989 135.53 68.767 135.53 69.4489C135.53 70.4375 135.888 71.1932 136.604 71.7159C137.331 72.2273 138.251 72.483 139.365 72.483ZM171.589 50.8182V56.2727H155.822V50.8182H171.589ZM159.402 44.5455H166.663V68.9545C166.663 69.625 166.766 70.1477 166.97 70.5227C167.175 70.8864 167.459 71.142 167.822 71.2898C168.197 71.4375 168.629 71.5114 169.118 71.5114C169.459 71.5114 169.8 71.483 170.141 71.4261C170.482 71.358 170.743 71.3068 170.925 71.2727L172.067 76.6761C171.703 76.7898 171.192 76.9205 170.533 77.0682C169.874 77.2273 169.072 77.3239 168.129 77.358C166.379 77.4261 164.845 77.1932 163.527 76.6591C162.22 76.125 161.203 75.2955 160.476 74.1705C159.749 73.0455 159.391 71.625 159.402 69.9091V44.5455ZM187.868 77.5114C185.186 77.5114 182.879 76.9432 180.947 75.8068C179.027 74.6591 177.55 73.0682 176.516 71.0341C175.493 69 174.982 66.6591 174.982 64.0114C174.982 61.3295 175.499 58.9773 176.533 56.9545C177.578 54.9205 179.061 53.3352 180.982 52.1989C182.902 51.0511 185.186 50.4773 187.834 50.4773C190.118 50.4773 192.118 50.892 193.834 51.7216C195.55 52.5511 196.908 53.7159 197.908 55.2159C198.908 56.7159 199.459 58.4773 199.561 60.5H192.709C192.516 59.1932 192.004 58.142 191.175 57.3466C190.357 56.5398 189.283 56.1364 187.953 56.1364C186.828 56.1364 185.845 56.4432 185.004 57.0568C184.175 57.6591 183.527 58.5398 183.061 59.6989C182.595 60.858 182.362 62.2614 182.362 63.9091C182.362 65.5795 182.589 67 183.044 68.1705C183.51 69.3409 184.163 70.233 185.004 70.8466C185.845 71.4602 186.828 71.767 187.953 71.767C188.783 71.767 189.527 71.5966 190.186 71.2557C190.857 70.9148 191.408 70.4205 191.839 69.7727C192.283 69.1136 192.572 68.3239 192.709 67.4034H199.561C199.447 69.4034 198.902 71.1648 197.925 72.6875C196.959 74.1989 195.624 75.3807 193.919 76.233C192.214 77.0852 190.197 77.5114 187.868 77.5114ZM211.472 61.8636V77H204.21V42.0909H211.267V55.4375H211.574C212.165 53.892 213.119 52.6818 214.438 51.8068C215.756 50.9205 217.409 50.4773 219.398 50.4773C221.216 50.4773 222.801 50.875 224.153 51.6705C225.517 52.4545 226.574 53.5852 227.324 55.0625C228.085 56.5284 228.46 58.2841 228.449 60.3295V77H221.188V61.625C221.199 60.0114 220.79 58.7557 219.96 57.858C219.142 56.9602 217.994 56.5114 216.517 56.5114C215.528 56.5114 214.653 56.7216 213.892 57.142C213.142 57.5625 212.551 58.1761 212.119 58.983C211.699 59.7784 211.483 60.7386 211.472 61.8636ZM234.163 77V50.8182H241.425V77H234.163ZM237.811 47.4432C236.732 47.4432 235.805 47.0852 235.033 46.3693C234.271 45.642 233.891 44.7727 233.891 43.7614C233.891 42.7614 234.271 41.9034 235.033 41.1875C235.805 40.4602 236.732 40.0966 237.811 40.0966C238.891 40.0966 239.811 40.4602 240.572 41.1875C241.345 41.9034 241.732 42.7614 241.732 43.7614C241.732 44.7727 241.345 45.642 240.572 46.3693C239.811 47.0852 238.891 47.4432 237.811 47.4432ZM254.503 61.8636V77H247.241V50.8182H254.162V55.4375H254.469C255.048 53.9148 256.02 52.7102 257.384 51.8239C258.747 50.9261 260.401 50.4773 262.344 50.4773C264.162 50.4773 265.747 50.875 267.099 51.6705C268.452 52.4659 269.503 53.6023 270.253 55.0795C271.003 56.5455 271.378 58.2955 271.378 60.3295V77H264.116V61.625C264.128 60.0227 263.719 58.7727 262.889 57.875C262.06 56.9659 260.918 56.5114 259.463 56.5114C258.486 56.5114 257.622 56.7216 256.872 57.142C256.134 57.5625 255.554 58.1761 255.134 58.983C254.724 59.7784 254.514 60.7386 254.503 61.8636ZM288.896 87.3636C286.544 87.3636 284.527 87.0398 282.845 86.392C281.175 85.7557 279.845 84.8864 278.857 83.7841C277.868 82.6818 277.226 81.4432 276.93 80.0682L283.646 79.1648C283.851 79.6875 284.175 80.1761 284.618 80.6307C285.061 81.0852 285.646 81.4489 286.374 81.7216C287.112 82.0057 288.01 82.1477 289.067 82.1477C290.646 82.1477 291.947 81.7614 292.97 80.9886C294.004 80.2273 294.521 78.9489 294.521 77.1534V72.3636H294.214C293.896 73.0909 293.419 73.7784 292.783 74.4261C292.146 75.0739 291.328 75.6023 290.328 76.0114C289.328 76.4205 288.135 76.625 286.749 76.625C284.783 76.625 282.993 76.1705 281.379 75.2614C279.777 74.3409 278.499 72.9375 277.544 71.0511C276.601 69.1534 276.129 66.7557 276.129 63.858C276.129 60.892 276.612 58.4148 277.578 56.4261C278.544 54.4375 279.828 52.9489 281.43 51.9602C283.044 50.9716 284.811 50.4773 286.732 50.4773C288.197 50.4773 289.425 50.7273 290.413 51.2273C291.402 51.7159 292.197 52.3295 292.8 53.0682C293.413 53.7955 293.885 54.5114 294.214 55.2159H294.487V50.8182H301.697V77.2557C301.697 79.483 301.152 81.3466 300.061 82.8466C298.97 84.3466 297.459 85.4716 295.527 86.2216C293.607 86.983 291.396 87.3636 288.896 87.3636ZM289.05 71.1705C290.22 71.1705 291.209 70.8807 292.016 70.3011C292.834 69.7102 293.459 68.8693 293.891 67.7784C294.334 66.6761 294.555 65.358 294.555 63.8239C294.555 62.2898 294.339 60.9602 293.908 59.8352C293.476 58.6989 292.851 57.8182 292.033 57.1932C291.214 56.5682 290.22 56.2557 289.05 56.2557C287.857 56.2557 286.851 56.5795 286.033 57.2273C285.214 57.8636 284.595 58.75 284.175 59.8864C283.754 61.0227 283.544 62.3352 283.544 63.8239C283.544 65.3352 283.754 66.642 284.175 67.7443C284.607 68.8352 285.226 69.6818 286.033 70.2841C286.851 70.875 287.857 71.1705 289.05 71.1705ZM307.476 77V50.8182H314.737V77H307.476ZM311.124 47.4432C310.044 47.4432 309.118 47.0852 308.345 46.3693C307.584 45.642 307.203 44.7727 307.203 43.7614C307.203 42.7614 307.584 41.9034 308.345 41.1875C309.118 40.4602 310.044 40.0966 311.124 40.0966C312.203 40.0966 313.124 40.4602 313.885 41.1875C314.658 41.9034 315.044 42.7614 315.044 43.7614C315.044 44.7727 314.658 45.642 313.885 46.3693C313.124 47.0852 312.203 47.4432 311.124 47.4432Z" fill="white"/>
<path d="M86.0341 42.0909V41.0909H85.0341V42.0909H86.0341ZM95.1364 42.0909L96.0617 41.7116L95.8072 41.0909H95.1364V42.0909ZM104.75 65.5455L103.825 65.9247L104.079 66.5455H104.75V65.5455ZM105.159 65.5455V66.5455H105.83L106.084 65.9247L105.159 65.5455ZM114.773 42.0909V41.0909H114.102L113.847 41.7116L114.773 42.0909ZM123.875 42.0909H124.875V41.0909H123.875V42.0909ZM123.875 77V78H124.875V77H123.875ZM116.716 77H115.716V78H116.716V77ZM116.716 54.2784H117.716V53.2784H116.716V54.2784ZM116.426 54.2784V53.2784H115.749L115.498 53.9065L116.426 54.2784ZM107.392 76.8295V77.8295H108.069L108.32 77.2014L107.392 76.8295ZM102.517 76.8295L101.588 77.2002L101.839 77.8295H102.517V76.8295ZM93.483 54.1932L94.4117 53.8225L94.1606 53.1932H93.483V54.1932ZM93.1932 54.1932V53.1932H92.1932V54.1932H93.1932ZM93.1932 77V78H94.1932V77H93.1932ZM86.0341 77H85.0341V78H86.0341V77ZM86.0341 43.0909H95.1364V41.0909H86.0341V43.0909ZM94.2111 42.4702L103.825 65.9247L105.675 65.1662L96.0617 41.7116L94.2111 42.4702ZM104.75 66.5455H105.159V64.5455H104.75V66.5455ZM106.084 65.9247L115.698 42.4702L113.847 41.7116L104.234 65.1662L106.084 65.9247ZM114.773 43.0909H123.875V41.0909H114.773V43.0909ZM122.875 42.0909V77H124.875V42.0909H122.875ZM123.875 76H116.716V78H123.875V76ZM117.716 77V54.2784H115.716V77H117.716ZM116.716 53.2784H116.426V55.2784H116.716V53.2784ZM115.498 53.9065L106.464 76.4577L108.32 77.2014L117.354 54.6503L115.498 53.9065ZM107.392 75.8295H102.517V77.8295H107.392V75.8295ZM103.446 76.4589L94.4117 53.8225L92.5542 54.5638L101.588 77.2002L103.446 76.4589ZM93.483 53.1932H93.1932V55.1932H93.483V53.1932ZM92.1932 54.1932V77H94.1932V54.1932H92.1932ZM93.1932 76H86.0341V78H93.1932V76ZM87.0341 77V42.0909H85.0341V77H87.0341ZM132.82 76.625L132.408 77.5362L132.414 77.5391L132.82 76.625ZM129.717 74.017L128.878 74.5603L128.884 74.5698L129.717 74.017ZM129.393 66.0227L128.514 65.5474L128.514 65.5474L129.393 66.0227ZM131.575 63.6364L131.028 62.7996L131.028 62.7996L131.575 63.6364ZM134.712 62.2727L134.46 61.3048L134.458 61.3054L134.712 62.2727ZM138.428 61.625L138.524 62.6204L138.531 62.6196L138.428 61.625ZM142.109 61.1818L142.254 62.1713L142.266 62.1695L142.109 61.1818ZM144.138 60.5341L143.578 59.7055L143.578 59.7055L144.138 60.5341ZM143.746 56.6648L143.085 57.415L143.091 57.4205L143.746 56.6648ZM137.763 56.6477L138.355 57.4534L138.363 57.4477L137.763 56.6477ZM136.229 58.7955L136.148 59.7922L136.962 59.8583L137.189 59.0735L136.229 58.7955ZM129.513 58.25L128.535 58.0405L128.296 59.1545L129.432 59.2467L129.513 58.25ZM131.524 54.125L132.281 54.7782L132.284 54.7746L131.524 54.125ZM135.393 51.4318L135.761 52.3617L135.765 52.3603L135.393 51.4318ZM145.092 50.9886L144.844 51.9573L144.846 51.9578L145.092 50.9886ZM148.655 52.5739L148.086 53.3961L148.09 53.3989L148.655 52.5739ZM151.126 55.3352L150.245 55.8072L150.247 55.8109L151.126 55.3352ZM152.03 77V78H153.03V77H152.03ZM145.143 77H144.143V78H145.143V77ZM145.143 73.3693H146.143V72.3693H145.143V73.3693ZM144.939 73.3693V72.3693H144.328L144.049 72.9122L144.939 73.3693ZM143.251 75.5341L143.908 76.2882L143.915 76.2822L143.251 75.5341ZM140.712 76.983L141.038 77.9284L141.047 77.9249L140.712 76.983ZM142.195 71.8523L142.652 72.7418L142.661 72.7367L142.195 71.8523ZM144.121 70.1136L143.279 69.5742L143.279 69.5742L144.121 70.1136ZM144.82 64.8636H145.82V63.021L144.275 64.0252L144.82 64.8636ZM143.882 65.2727L144.164 66.2321L144.173 66.2295L144.182 66.2267L143.882 65.2727ZM142.57 65.5966L142.753 66.5797L142.764 66.5777L142.774 66.5754L142.57 65.5966ZM141.104 65.8523L141.242 66.8427L141.253 66.8411L141.264 66.8393L141.104 65.8523ZM139.774 66.0398L139.633 65.0498L139.629 65.0504L139.774 66.0398ZM137.541 66.6364L137.935 67.5555L137.935 67.5555L137.541 66.6364ZM136.058 67.7443L136.849 68.3569L136.856 68.3474L136.058 67.7443ZM136.604 71.7159L136.014 72.5235L136.021 72.5288L136.029 72.5339L136.604 71.7159ZM137.286 76.4943C135.731 76.4943 134.384 76.2251 133.225 75.7109L132.414 77.5391C133.868 78.184 135.499 78.4943 137.286 78.4943V76.4943ZM133.232 75.7138C132.089 75.197 131.204 74.4486 130.551 73.4643L128.884 74.5698C129.754 75.8809 130.937 76.8712 132.408 77.5362L133.232 75.7138ZM130.557 73.4738C129.935 72.5128 129.592 71.2703 129.592 69.6875H127.592C127.592 71.5592 128 73.2031 128.878 74.5603L130.557 73.4738ZM129.592 69.6875C129.592 68.3514 129.838 67.3039 130.273 66.498L128.514 65.5474C127.881 66.7188 127.592 68.1145 127.592 69.6875H129.592ZM130.273 66.498C130.73 65.6524 131.345 64.9824 132.123 64.4732L131.028 62.7996C129.965 63.4949 129.125 64.4158 128.514 65.5474L130.273 66.498ZM132.123 64.4732C132.944 63.9356 133.889 63.5222 134.965 63.24L134.458 61.3054C133.194 61.6369 132.047 62.1326 131.028 62.7996L132.123 64.4732ZM134.963 63.2406C136.091 62.9479 137.277 62.7407 138.524 62.6204L138.332 60.6296C136.987 60.7593 135.696 60.9839 134.46 61.3048L134.963 63.2406ZM138.531 62.6196C140.061 62.4598 141.303 62.3105 142.254 62.1713L141.965 60.1924C141.052 60.3259 139.84 60.472 138.324 60.6304L138.531 62.6196ZM142.266 62.1695C143.239 62.0152 144.092 61.7719 144.698 61.3627L143.578 59.7055C143.343 59.8644 142.843 60.0529 141.953 60.1942L142.266 62.1695ZM144.698 61.3627C145.423 60.8723 145.768 60.1236 145.768 59.2727H143.768C143.768 59.5355 143.693 59.6277 143.578 59.7055L144.698 61.3627ZM145.768 59.2727V59.1705H143.768V59.2727H145.768ZM145.768 59.1705C145.768 57.8634 145.345 56.7274 144.401 55.9091L143.091 57.4205C143.51 57.784 143.768 58.3184 143.768 59.1705H145.768ZM144.407 55.9146C143.494 55.1098 142.27 54.7784 140.882 54.7784V56.7784C141.971 56.7784 142.657 57.0379 143.085 57.415L144.407 55.9146ZM140.882 54.7784C139.434 54.7784 138.161 55.0994 137.163 55.8477L138.363 57.4477C138.91 57.037 139.716 56.7784 140.882 56.7784V54.7784ZM137.17 55.8421C136.233 56.5315 135.584 57.4275 135.268 58.5174L137.189 59.0735C137.374 58.4361 137.747 57.9004 138.355 57.4534L137.17 55.8421ZM136.31 57.7987L129.594 57.2533L129.432 59.2467L136.148 59.7922L136.31 57.7987ZM130.491 58.4595C130.799 57.022 131.398 55.8023 132.281 54.7782L130.767 53.4718C129.65 54.7659 128.909 56.2961 128.535 58.0405L130.491 58.4595ZM132.284 54.7746C133.168 53.7406 134.318 52.933 135.761 52.3617L135.026 50.502C133.31 51.1807 131.88 52.1685 130.764 53.4754L132.284 54.7746ZM135.765 52.3603C137.215 51.7803 138.925 51.4773 140.916 51.4773V49.4773C138.725 49.4773 136.754 49.8106 135.022 50.5033L135.765 52.3603ZM140.916 51.4773C142.292 51.4773 143.6 51.6384 144.844 51.9573L145.341 50.02C143.925 49.6571 142.45 49.4773 140.916 49.4773V51.4773ZM144.846 51.9578C146.083 52.2723 147.159 52.7544 148.086 53.3961L149.224 51.7517C148.083 50.9615 146.784 50.3868 145.339 50.0195L144.846 51.9578ZM148.09 53.3989C149.002 54.0236 149.718 54.8225 150.245 55.8072L152.008 54.8633C151.331 53.5979 150.399 52.556 149.22 51.7488L148.09 53.3989ZM150.247 55.8109C150.754 56.7486 151.03 57.9125 151.03 59.3409H153.03C153.03 57.6557 152.703 56.1492 152.006 54.8595L150.247 55.8109ZM151.03 59.3409V77H153.03V59.3409H151.03ZM152.03 76H145.143V78H152.03V76ZM146.143 77V73.3693H144.143V77H146.143ZM145.143 72.3693H144.939V74.3693H145.143V72.3693ZM144.049 72.9122C143.687 73.6176 143.202 74.2412 142.588 74.786L143.915 76.2822C144.71 75.577 145.35 74.7574 145.828 73.8264L144.049 72.9122ZM142.595 74.78C141.995 75.302 141.261 75.7255 140.376 76.041L141.047 77.9249C142.139 77.5358 143.098 76.9935 143.908 76.2882L142.595 74.78ZM140.386 76.0376C139.524 76.3349 138.495 76.4943 137.286 76.4943V78.4943C138.666 78.4943 139.923 78.3129 141.038 77.9283L140.386 76.0376ZM139.365 73.483C140.567 73.483 141.671 73.2457 142.652 72.7417L141.738 70.9628C141.082 71.2997 140.3 71.483 139.365 71.483V73.483ZM142.661 72.7367C143.621 72.2301 144.397 71.5361 144.963 70.6531L143.279 69.5742C142.913 70.1457 142.404 70.6108 141.728 70.9679L142.661 72.7367ZM144.963 70.6531C145.539 69.7541 145.82 68.7406 145.82 67.642H143.82C143.82 68.3844 143.635 69.0187 143.279 69.5742L144.963 70.6531ZM145.82 67.642V64.8636H143.82V67.642H145.82ZM144.275 64.0252C144.153 64.1045 143.935 64.208 143.582 64.3187L144.182 66.2267C144.625 66.0874 145.032 65.9183 145.365 65.7021L144.275 64.0252ZM143.6 64.3134C143.244 64.418 142.833 64.5197 142.365 64.6178L142.774 66.5754C143.283 66.4689 143.747 66.3547 144.164 66.2321L143.6 64.3134ZM142.387 64.6135C141.905 64.703 141.424 64.7869 140.943 64.8653L141.264 66.8393C141.76 66.7585 142.257 66.672 142.753 66.5797L142.387 64.6135ZM140.965 64.8619C140.476 64.9302 140.032 64.9928 139.633 65.0498L139.916 67.0297C140.312 66.9731 140.754 66.9107 141.242 66.8427L140.965 64.8619ZM139.629 65.0504C138.711 65.185 137.88 65.4033 137.147 65.7172L137.935 67.5555C138.475 67.324 139.133 67.1445 139.919 67.0292L139.629 65.0504ZM137.147 65.7172C136.381 66.0457 135.736 66.513 135.261 67.1412L136.856 68.3474C137.085 68.0439 137.429 67.7725 137.935 67.5555L137.147 65.7172ZM135.268 67.1317C134.756 67.7926 134.53 68.5879 134.53 69.4489H136.53C136.53 68.9462 136.656 68.6052 136.849 68.3569L135.268 67.1317ZM134.53 69.4489C134.53 70.7142 135.008 71.7888 136.014 72.5235L137.193 70.9083C136.768 70.5976 136.53 70.1608 136.53 69.4489H134.53ZM136.029 72.5339C136.962 73.1906 138.098 73.483 139.365 73.483V71.483C138.405 71.483 137.699 71.2639 137.179 70.8979L136.029 72.5339ZM171.589 50.8182H172.589V49.8182H171.589V50.8182ZM171.589 56.2727V57.2727H172.589V56.2727H171.589ZM155.822 56.2727H154.822V57.2727H155.822V56.2727ZM155.822 50.8182V49.8182H154.822V50.8182H155.822ZM159.402 44.5455V43.5455H158.402V44.5455H159.402ZM166.663 44.5455H167.663V43.5455H166.663V44.5455ZM166.97 70.5227L166.092 71.0016L166.099 71.013L166.97 70.5227ZM167.822 71.2898L167.446 72.2163L167.456 72.2202L167.822 71.2898ZM170.141 71.4261L170.305 72.4125L170.321 72.4099L170.337 72.4067L170.141 71.4261ZM170.925 71.2727L171.903 71.0659L171.701 70.1097L170.74 70.2899L170.925 71.2727ZM172.067 76.6761L172.365 77.6306L173.233 77.3593L173.045 76.4693L172.067 76.6761ZM170.533 77.0682L170.314 76.0924L170.306 76.0942L170.298 76.0961L170.533 77.0682ZM168.129 77.358L168.093 76.3586L168.09 76.3587L168.129 77.358ZM163.527 76.6591L163.149 77.5848L163.151 77.5859L163.527 76.6591ZM160.476 74.1705L161.316 73.6276L161.316 73.6276L160.476 74.1705ZM159.402 69.9091L160.402 69.9157V69.9091H159.402ZM170.589 50.8182V56.2727H172.589V50.8182H170.589ZM171.589 55.2727H155.822V57.2727H171.589V55.2727ZM156.822 56.2727V50.8182H154.822V56.2727H156.822ZM155.822 51.8182H171.589V49.8182H155.822V51.8182ZM159.402 45.5455H166.663V43.5455H159.402V45.5455ZM165.663 44.5455V68.9545H167.663V44.5455H165.663ZM165.663 68.9545C165.663 69.7061 165.775 70.4191 166.092 71.0016L167.848 70.0439C167.757 69.8764 167.663 69.5439 167.663 68.9545H165.663ZM166.099 71.013C166.407 71.5605 166.859 71.9777 167.446 72.2162L168.199 70.3633C168.059 70.3063 167.943 70.2122 167.842 70.0325L166.099 71.013ZM167.456 72.2202C167.97 72.4225 168.53 72.5114 169.118 72.5114V70.5114C168.729 70.5114 168.425 70.4525 168.189 70.3594L167.456 72.2202ZM169.118 72.5114C169.515 72.5114 169.911 72.4783 170.305 72.4125L169.976 70.4397C169.689 70.4876 169.403 70.5114 169.118 70.5114V72.5114ZM170.337 72.4067C170.676 72.3388 170.933 72.2886 171.109 72.2556L170.74 70.2899C170.553 70.3251 170.287 70.3771 169.945 70.4456L170.337 72.4067ZM169.946 71.4795L171.088 76.8829L173.045 76.4693L171.903 71.0659L169.946 71.4795ZM171.768 75.7217C171.444 75.8232 170.963 75.9469 170.314 76.0924L170.751 78.044C171.42 77.8941 171.963 77.7564 172.365 77.6306L171.768 75.7217ZM170.298 76.0961C169.724 76.2347 168.993 76.3261 168.093 76.3586L168.165 78.3573C169.152 78.3217 170.023 78.2198 170.767 78.0403L170.298 76.0961ZM168.09 76.3587C166.45 76.4226 165.063 76.2023 163.903 75.7323L163.151 77.5859C164.628 78.1841 166.308 78.4297 168.168 78.3572L168.09 76.3587ZM163.905 75.7334C162.777 75.2723 161.926 74.5712 161.316 73.6276L159.636 74.7134C160.481 76.0197 161.663 76.9777 163.149 77.5848L163.905 75.7334ZM161.316 73.6276C160.72 72.7065 160.392 71.4911 160.402 69.9157L158.402 69.9025C158.39 71.7589 158.777 73.3844 159.636 74.7134L161.316 73.6276ZM160.402 69.9091V44.5455H158.402V69.9091H160.402ZM180.947 75.8068L180.434 76.6652L180.44 76.6688L180.947 75.8068ZM176.516 71.0341L175.622 71.4833L175.624 71.4873L176.516 71.0341ZM176.533 56.9545L175.643 56.4974L175.642 56.4993L176.533 56.9545ZM180.982 52.1989L181.491 53.0595L181.495 53.0573L180.982 52.1989ZM193.834 51.7216L194.269 50.8213L194.269 50.8213L193.834 51.7216ZM199.561 60.5V61.5H200.613L200.56 60.4495L199.561 60.5ZM192.709 60.5L191.72 60.6462L191.846 61.5H192.709V60.5ZM191.175 57.3466L190.473 58.0587L190.483 58.0684L191.175 57.3466ZM185.004 57.0568L185.592 57.866L185.594 57.8646L185.004 57.0568ZM183.044 68.1705L182.112 68.5325L182.115 68.5403L183.044 68.1705ZM185.004 70.8466L185.594 70.0388L185.594 70.0388L185.004 70.8466ZM190.186 71.2557L189.733 70.3643L189.727 70.3675L190.186 71.2557ZM191.839 69.7727L191.01 69.2147L191.007 69.218L191.839 69.7727ZM192.709 67.4034V66.4034H191.846L191.72 67.2569L192.709 67.4034ZM199.561 67.4034L200.559 67.4601L200.62 66.4034H199.561V67.4034ZM197.925 72.6875L197.083 72.1474L197.082 72.149L197.925 72.6875ZM193.919 76.233L193.472 75.3385L193.472 75.3385L193.919 76.233ZM187.868 76.5114C185.329 76.5114 183.205 75.9745 181.454 74.9449L180.44 76.6688C182.554 77.9118 185.043 78.5114 187.868 78.5114V76.5114ZM181.46 74.9484C179.705 73.8994 178.358 72.4505 177.407 70.5809L175.624 71.4873C176.742 73.6859 178.349 75.4188 180.434 76.6652L181.46 74.9484ZM177.409 70.5849C176.467 68.7112 175.982 66.5285 175.982 64.0114H173.982C173.982 66.7897 174.519 69.2888 175.622 71.4833L177.409 70.5849ZM175.982 64.0114C175.982 61.4593 176.473 59.2682 177.423 57.4097L175.642 56.4993C174.524 58.6863 173.982 61.1997 173.982 64.0114H175.982ZM177.422 57.4117C178.384 55.5408 179.737 54.0974 181.491 53.0595L180.472 51.3382C178.385 52.5731 176.773 54.3001 175.643 56.4974L177.422 57.4117ZM181.495 53.0573C183.234 52.018 185.333 51.4773 187.834 51.4773V49.4773C185.039 49.4773 182.57 50.0843 180.469 51.3405L181.495 53.0573ZM187.834 51.4773C189.997 51.4773 191.843 51.8697 193.399 52.6219L194.269 50.8213C192.393 49.9144 190.239 49.4773 187.834 49.4773V51.4773ZM193.399 52.6219C194.963 53.3784 196.18 54.4278 197.076 55.7706L198.74 54.6612C197.635 53.004 196.136 51.7239 194.269 50.8213L193.399 52.6219ZM197.076 55.7706C197.964 57.1027 198.468 58.685 198.562 60.5505L200.56 60.4495C200.45 58.2695 199.852 56.3291 198.74 54.6612L197.076 55.7706ZM199.561 59.5H192.709V61.5H199.561V59.5ZM193.698 60.3538C193.478 58.8618 192.88 57.5962 191.867 56.6248L190.483 58.0684C191.129 58.6879 191.554 59.5246 191.72 60.6462L193.698 60.3538ZM191.877 56.6346C190.842 55.6141 189.501 55.1364 187.953 55.1364V57.1364C189.064 57.1364 189.871 57.4654 190.473 58.0586L191.877 56.6346ZM187.953 55.1364C186.634 55.1364 185.441 55.5002 184.415 56.249L185.594 57.8646C186.249 57.3861 187.022 57.1364 187.953 57.1364V55.1364ZM184.417 56.2476C183.405 56.9824 182.654 58.0306 182.133 59.3259L183.989 60.0718C184.4 59.049 184.945 58.3358 185.592 57.866L184.417 56.2476ZM182.133 59.3259C181.607 60.6348 181.362 62.1722 181.362 63.9091H183.362C183.362 62.3505 183.583 61.0811 183.989 60.0718L182.133 59.3259ZM181.362 63.9091C181.362 65.6648 181.6 67.2154 182.112 68.5325L183.976 67.8084C183.579 66.7846 183.362 65.4943 183.362 63.9091H181.362ZM182.115 68.5403C182.636 69.8488 183.392 70.9083 184.415 71.6544L185.594 70.0388C184.934 69.5576 184.384 68.833 183.973 67.8006L182.115 68.5403ZM184.415 71.6544C185.441 72.4032 186.634 72.767 187.953 72.767V70.767C187.022 70.767 186.249 70.5173 185.594 70.0388L184.415 71.6544ZM187.953 72.767C188.923 72.767 189.828 72.5666 190.646 72.1439L189.727 70.3675C189.226 70.6266 188.642 70.767 187.953 70.767V72.767ZM190.639 72.1471C191.468 71.7255 192.148 71.1128 192.672 70.3274L191.007 69.218C190.667 69.7281 190.245 70.104 189.733 70.3643L190.639 72.1471ZM192.669 70.3307C193.209 69.5286 193.544 68.5926 193.698 67.55L191.72 67.2569C191.601 68.0551 191.357 68.6987 191.01 69.2147L192.669 70.3307ZM192.709 68.4034H199.561V66.4034H192.709V68.4034ZM198.563 67.3467C198.458 69.1936 197.958 70.7847 197.083 72.1474L198.766 73.2276C199.846 71.5448 200.437 69.6132 200.559 67.4601L198.563 67.3467ZM197.082 72.149C196.22 73.4986 195.025 74.5618 193.472 75.3385L194.366 77.1274C196.222 76.1996 197.698 74.8991 198.767 73.226L197.082 72.149ZM193.472 75.3385C191.934 76.1076 190.076 76.5114 187.868 76.5114V78.5114C190.319 78.5114 192.495 78.0628 194.366 77.1274L193.472 75.3385ZM211.472 61.8636L210.472 61.8535V61.8636H211.472ZM211.472 77V78H212.472V77H211.472ZM204.21 77H203.21V78H204.21V77ZM204.21 42.0909V41.0909H203.21V42.0909H204.21ZM211.267 42.0909H212.267V41.0909H211.267V42.0909ZM211.267 55.4375H210.267V56.4375H211.267V55.4375ZM211.574 55.4375V56.4375H212.262L212.508 55.7946L211.574 55.4375ZM214.438 51.8068L214.991 52.64L214.995 52.6367L214.438 51.8068ZM224.153 51.6705L223.646 52.5324L223.655 52.5374L224.153 51.6705ZM227.324 55.0625L226.432 55.5152L226.436 55.5234L227.324 55.0625ZM228.449 60.3295L227.449 60.324V60.3295H228.449ZM228.449 77V78H229.449V77H228.449ZM221.188 77H220.188V78H221.188V77ZM221.188 61.625L220.188 61.618V61.625H221.188ZM219.96 57.858L219.221 58.5316L219.226 58.5366L219.96 57.858ZM213.892 57.142L213.409 56.2666L213.403 56.2698L213.892 57.142ZM212.119 58.983L211.238 58.5111L211.235 58.5156L212.119 58.983ZM210.472 61.8636V77H212.472V61.8636H210.472ZM211.472 76H204.21V78H211.472V76ZM205.21 77V42.0909H203.21V77H205.21ZM204.21 43.0909H211.267V41.0909H204.21V43.0909ZM210.267 42.0909V55.4375H212.267V42.0909H210.267ZM211.267 56.4375H211.574V54.4375H211.267V56.4375ZM212.508 55.7946C213.028 54.4342 213.854 53.3943 214.991 52.64L213.884 50.9737C212.385 51.9693 211.301 53.3499 210.64 55.0804L212.508 55.7946ZM214.995 52.6367C216.111 51.8862 217.558 51.4773 219.398 51.4773V49.4773C217.26 49.4773 215.4 49.9547 213.88 50.977L214.995 52.6367ZM219.398 51.4773C221.066 51.4773 222.471 51.8409 223.646 52.5324L224.66 50.8085C223.131 49.9091 221.365 49.4773 219.398 49.4773V51.4773ZM223.655 52.5374C224.841 53.2192 225.765 54.2016 226.432 55.5152L228.216 54.6098C227.382 52.9689 226.193 51.6898 224.652 50.8035L223.655 52.5374ZM226.436 55.5234C227.107 56.8149 227.46 58.4028 227.449 60.324L229.449 60.3351C229.461 58.1654 229.063 56.2419 228.211 54.6016L226.436 55.5234ZM227.449 60.3295V77H229.449V60.3295H227.449ZM228.449 76H221.188V78H228.449V76ZM222.188 77V61.625H220.188V77H222.188ZM222.187 61.632C222.2 59.8479 221.746 58.317 220.695 57.1793L219.226 58.5366C219.834 59.1944 220.198 60.1748 220.188 61.618L222.187 61.632ZM220.699 57.1844C219.651 56.0346 218.21 55.5114 216.517 55.5114V57.5114C217.779 57.5114 218.633 57.8859 219.221 58.5316L220.699 57.1844ZM216.517 55.5114C215.383 55.5114 214.337 55.7538 213.409 56.2667L214.375 58.0174C214.97 57.6893 215.674 57.5114 216.517 57.5114V55.5114ZM213.403 56.2698C212.476 56.7896 211.753 57.5474 211.238 58.5111L213.001 59.4548C213.349 58.8049 213.808 58.3354 214.381 58.0143L213.403 56.2698ZM211.235 58.5156C210.724 59.483 210.484 60.6082 210.472 61.8535L212.472 61.8737C212.482 60.8691 212.674 60.0738 213.003 59.4503L211.235 58.5156ZM234.163 77H233.163V78H234.163V77ZM234.163 50.8182V49.8182H233.163V50.8182H234.163ZM241.425 50.8182H242.425V49.8182H241.425V50.8182ZM241.425 77V78H242.425V77H241.425ZM235.033 46.3693L234.342 47.0924L234.347 47.0977L234.353 47.1029L235.033 46.3693ZM235.033 41.1875L235.718 41.916L235.718 41.9157L235.033 41.1875ZM240.572 41.1875L239.882 41.9106L239.887 41.9159L239.893 41.9211L240.572 41.1875ZM240.572 46.3693L241.257 47.0978L241.258 47.0975L240.572 46.3693ZM235.163 77V50.8182H233.163V77H235.163ZM234.163 51.8182H241.425V49.8182H234.163V51.8182ZM240.425 50.8182V77H242.425V50.8182H240.425ZM241.425 76H234.163V78H241.425V76ZM237.811 46.4432C236.977 46.4432 236.295 46.1757 235.712 45.6358L234.353 47.1029C235.316 47.9947 236.486 48.4432 237.811 48.4432V46.4432ZM235.723 45.6462C235.15 45.0989 234.891 44.4872 234.891 43.7614H232.891C232.891 45.0582 233.392 46.1852 234.342 47.0924L235.723 45.6462ZM234.891 43.7614C234.891 43.0509 235.147 42.4525 235.718 41.916L234.348 40.459C233.395 41.3543 232.891 42.4718 232.891 43.7614H234.891ZM235.718 41.9157C236.302 41.3663 236.981 41.0966 237.811 41.0966V39.0966C236.482 39.0966 235.309 39.5541 234.347 40.4593L235.718 41.9157ZM237.811 41.0966C238.641 41.0966 239.312 41.366 239.882 41.9106L241.263 40.4644C240.311 39.5545 239.141 39.0966 237.811 39.0966V41.0966ZM239.893 41.9211C240.474 42.4591 240.732 43.0561 240.732 43.7614H242.732C242.732 42.4666 242.217 41.3477 241.252 40.4539L239.893 41.9211ZM240.732 43.7614C240.732 44.4821 240.47 45.0924 239.887 45.6411L241.258 47.0975C242.22 46.1917 242.732 45.0633 242.732 43.7614H240.732ZM239.887 45.6408C239.318 46.1761 238.645 46.4432 237.811 46.4432V48.4432C239.136 48.4432 240.304 47.9944 241.257 47.0978L239.887 45.6408ZM254.503 61.8636L253.503 61.8535V61.8636H254.503ZM254.503 77V78H255.503V77H254.503ZM247.241 77H246.241V78H247.241V77ZM247.241 50.8182V49.8182H246.241V50.8182H247.241ZM254.162 50.8182H255.162V49.8182H254.162V50.8182ZM254.162 55.4375H253.162V56.4375H254.162V55.4375ZM254.469 55.4375V56.4375H255.158L255.403 55.7932L254.469 55.4375ZM257.384 51.8239L257.929 52.6623L257.933 52.6591L257.384 51.8239ZM270.253 55.0795L269.361 55.5322L269.363 55.535L270.253 55.0795ZM271.378 77V78H272.378V77H271.378ZM264.116 77H263.116V78H264.116V77ZM264.116 61.625L263.116 61.6179V61.625H264.116ZM262.889 57.875L262.151 58.5491L262.155 58.5537L262.889 57.875ZM256.872 57.142L256.383 56.2697L256.377 56.273L256.872 57.142ZM255.134 58.983L254.247 58.5208L254.244 58.5256L255.134 58.983ZM253.503 61.8636V77H255.503V61.8636H253.503ZM254.503 76H247.241V78H254.503V76ZM248.241 77V50.8182H246.241V77H248.241ZM247.241 51.8182H254.162V49.8182H247.241V51.8182ZM253.162 50.8182V55.4375H255.162V50.8182H253.162ZM254.162 56.4375H254.469V54.4375H254.162V56.4375ZM255.403 55.7932C255.908 54.4682 256.743 53.4329 257.929 52.6623L256.839 50.9854C255.297 51.9875 254.189 53.3613 253.534 55.0818L255.403 55.7932ZM257.933 52.6591C259.105 51.8879 260.558 51.4773 262.344 51.4773V49.4773C260.243 49.4773 258.389 49.9644 256.834 50.9886L257.933 52.6591ZM262.344 51.4773C264.012 51.4773 265.417 51.8409 266.592 52.5324L267.606 50.8085C266.078 49.9091 264.312 49.4773 262.344 49.4773V51.4773ZM266.592 52.5324C267.771 53.2254 268.693 54.2153 269.361 55.5322L271.145 54.6269C270.313 52.9892 269.133 51.7064 267.606 50.8085L266.592 52.5324ZM269.363 55.535C270.025 56.8306 270.378 58.4172 270.378 60.3295H272.378C272.378 58.1737 271.98 56.2603 271.143 54.6241L269.363 55.535ZM270.378 60.3295V77H272.378V60.3295H270.378ZM271.378 76H264.116V78H271.378V76ZM265.116 77V61.625H263.116V77H265.116ZM265.116 61.6321C265.129 59.8571 264.674 58.3328 263.624 57.1963L262.155 58.5537C262.764 59.2127 263.127 60.1884 263.117 61.6179L265.116 61.6321ZM263.628 57.2009C262.574 56.0463 261.143 55.5114 259.463 55.5114V57.5114C260.692 57.5114 261.545 57.8855 262.151 58.5491L263.628 57.2009ZM259.463 55.5114C258.338 55.5114 257.302 55.7547 256.383 56.2698L257.361 58.0143C257.942 57.6885 258.633 57.5114 259.463 57.5114V55.5114ZM256.377 56.273C255.46 56.7953 254.749 57.556 254.247 58.5208L256.02 59.4451C256.358 58.7962 256.807 58.3297 257.367 58.0111L256.377 56.273ZM254.244 58.5256C253.748 59.4905 253.515 60.612 253.503 61.8535L255.503 61.8737C255.513 60.8653 255.701 60.0663 256.023 59.4403L254.244 58.5256ZM282.845 86.392L283.205 85.4589L283.201 85.4576L282.845 86.392ZM278.857 83.7841L278.112 84.4518L278.112 84.4518L278.857 83.7841ZM276.93 80.0682L276.797 79.0771L275.726 79.2212L275.953 80.2783L276.93 80.0682ZM283.646 79.1648L284.578 78.8004L284.291 78.069L283.513 78.1737L283.646 79.1648ZM284.618 80.6307L285.334 79.9326L285.334 79.9326L284.618 80.6307ZM286.374 81.7216L286.733 80.7882L286.725 80.7853L286.374 81.7216ZM292.97 80.9886L292.377 80.1833L292.367 80.1908L292.97 80.9886ZM294.521 72.3636H295.521V71.3636H294.521V72.3636ZM294.214 72.3636V71.3636H293.56L293.298 71.9628L294.214 72.3636ZM292.783 74.4261L293.496 75.127L293.496 75.127L292.783 74.4261ZM281.379 75.2614L280.881 76.1285L280.888 76.1326L281.379 75.2614ZM277.544 71.0511L276.649 71.4962L276.652 71.5026L277.544 71.0511ZM277.578 56.4261L276.679 55.9892L276.679 55.9892L277.578 56.4261ZM281.43 51.9602L280.908 51.1075L280.905 51.1092L281.43 51.9602ZM290.413 51.2273L289.962 52.1197L289.97 52.1238L290.413 51.2273ZM292.8 53.0682L292.025 53.7001L292.03 53.7066L292.035 53.7131L292.8 53.0682ZM294.214 55.2159L293.309 55.6396L293.578 56.2159H294.214V55.2159ZM294.487 55.2159V56.2159H295.487V55.2159H294.487ZM294.487 50.8182V49.8182H293.487V50.8182H294.487ZM301.697 50.8182H302.697V49.8182H301.697V50.8182ZM300.061 82.8466L299.252 82.2584L299.252 82.2584L300.061 82.8466ZM295.527 86.2216L295.165 85.2894L295.158 85.292L295.527 86.2216ZM292.016 70.3011L292.599 71.1133L292.601 71.1118L292.016 70.3011ZM293.891 67.7784L292.963 67.4054L292.961 67.4104L293.891 67.7784ZM293.908 59.8352L292.973 60.1904L292.974 60.1936L293.908 59.8352ZM286.033 57.2273L286.647 58.0167L286.653 58.0113L286.033 57.2273ZM284.175 59.8864L285.113 60.2334L285.113 60.2334L284.175 59.8864ZM284.175 67.7443L283.24 68.1007L283.245 68.1124L284.175 67.7443ZM286.033 70.2841L285.434 71.0854L285.441 71.0902L285.447 71.0948L286.033 70.2841ZM288.896 86.3636C286.631 86.3636 284.743 86.0512 283.205 85.4589L282.486 87.3252C284.311 88.0283 286.457 88.3636 288.896 88.3636V86.3636ZM283.201 85.4576C281.649 84.8663 280.463 84.0779 279.601 83.1164L278.112 84.4518C279.227 85.6948 280.7 86.6451 282.489 87.3265L283.201 85.4576ZM279.601 83.1164C278.722 82.1366 278.165 81.0538 277.908 79.8581L275.953 80.2783C276.287 81.8326 277.014 83.227 278.112 84.4518L279.601 83.1164ZM277.064 81.0593L283.78 80.1558L283.513 78.1737L276.797 79.0771L277.064 81.0593ZM282.715 79.5292C282.974 80.1917 283.378 80.791 283.902 81.3288L285.334 79.9326C284.972 79.5613 284.727 79.1833 284.578 78.8004L282.715 79.5292ZM283.902 81.3288C284.468 81.9094 285.188 82.3449 286.022 82.6579L286.725 80.7853C286.105 80.5529 285.654 80.261 285.334 79.9326L283.902 81.3288ZM286.015 82.6549C286.899 82.9951 287.926 83.1477 289.067 83.1477V81.1477C288.094 81.1477 287.325 81.0162 286.733 80.7882L286.015 82.6549ZM289.067 83.1477C290.812 83.1477 292.34 82.7184 293.573 81.7865L292.367 80.1908C291.555 80.8043 290.48 81.1477 289.067 81.1477V83.1477ZM293.563 81.7939C294.945 80.7761 295.521 79.1314 295.521 77.1534H293.521C293.521 78.7663 293.063 79.6784 292.377 80.1834L293.563 81.7939ZM295.521 77.1534V72.3636H293.521V77.1534H295.521ZM294.521 71.3636H294.214V73.3636H294.521V71.3636ZM293.298 71.9628C293.035 72.5638 292.633 73.1521 292.069 73.7253L293.496 75.127C294.206 74.4048 294.757 73.6181 295.131 72.7645L293.298 71.9628ZM292.069 73.7253C291.544 74.2596 290.847 74.7185 289.949 75.0858L290.707 76.9369C291.809 76.486 292.748 75.8881 293.496 75.127L292.069 73.7253ZM289.949 75.0858C289.098 75.434 288.04 75.625 286.749 75.625V77.625C288.23 77.625 289.558 77.4069 290.707 76.9369L289.949 75.0858ZM286.749 75.625C284.944 75.625 283.325 75.2096 281.87 74.3901L280.888 76.1326C282.661 77.1313 284.622 77.625 286.749 77.625V75.625ZM281.877 74.3943C280.468 73.5844 279.316 72.3378 278.436 70.5996L276.652 71.5026C277.681 73.5372 279.086 75.0974 280.881 76.1285L281.877 74.3943ZM278.44 70.6061C277.586 68.8878 277.129 66.655 277.129 63.858H275.129C275.129 66.8564 275.616 69.419 276.649 71.4962L278.44 70.6061ZM277.129 63.858C277.129 60.9942 277.596 58.6773 278.478 56.863L276.679 55.9892C275.628 58.1523 275.129 60.7899 275.129 63.858H277.129ZM278.478 56.863C279.375 55.0149 280.541 53.6839 281.956 52.8113L280.905 51.1092C279.115 52.2138 277.713 53.8601 276.679 55.9892L278.478 56.863ZM281.953 52.8129C283.407 51.9221 284.993 51.4773 286.732 51.4773V49.4773C284.63 49.4773 282.681 50.0211 280.908 51.1075L281.953 52.8129ZM286.732 51.4773C288.089 51.4773 289.151 51.7095 289.962 52.1196L290.865 50.3349C289.698 49.7451 288.306 49.4773 286.732 49.4773V51.4773ZM289.97 52.1238C290.851 52.5589 291.526 53.0885 292.025 53.7001L293.575 52.4362C292.869 51.5706 291.953 50.8729 290.856 50.3308L289.97 52.1238ZM292.035 53.7131C292.604 54.3875 293.024 55.0301 293.309 55.6396L295.12 54.7922C294.746 53.9927 294.222 53.2034 293.564 52.4233L292.035 53.7131ZM294.214 56.2159H294.487V54.2159H294.214V56.2159ZM295.487 55.2159V50.8182H293.487V55.2159H295.487ZM294.487 51.8182H301.697V49.8182H294.487V51.8182ZM300.697 50.8182V77.2557H302.697V50.8182H300.697ZM300.697 77.2557C300.697 79.3151 300.196 80.9614 299.252 82.2584L300.87 83.4348C302.108 81.7317 302.697 79.6508 302.697 77.2557H300.697ZM299.252 82.2584C298.287 83.5855 296.94 84.6004 295.165 85.2894L295.889 87.1538C297.978 86.3428 299.653 85.1077 300.87 83.4348L299.252 82.2584ZM295.158 85.292C293.377 85.9982 291.296 86.3636 288.896 86.3636V88.3636C291.497 88.3636 293.836 87.9677 295.896 87.1512L295.158 85.292ZM289.05 72.1705C290.391 72.1705 291.593 71.8356 292.599 71.1133L291.432 69.489C290.824 69.9257 290.049 70.1705 289.05 70.1705V72.1705ZM292.601 71.1118C293.598 70.392 294.33 69.3853 294.82 68.1465L292.961 67.4104C292.588 68.3533 292.07 69.0284 291.43 69.4905L292.601 71.1118ZM294.818 68.1514C295.321 66.9016 295.555 65.4503 295.555 63.8239H293.555C293.555 65.2657 293.347 66.4507 292.963 67.4054L294.818 68.1514ZM295.555 63.8239C295.555 62.1993 295.327 60.7427 294.841 59.4769L292.974 60.1936C293.352 61.1777 293.555 62.3803 293.555 63.8239H295.555ZM294.842 59.48C294.357 58.2014 293.631 57.1557 292.64 56.3985L291.426 57.9879C292.071 58.4807 292.595 59.1964 292.973 60.1904L294.842 59.48ZM292.64 56.3985C291.624 55.6224 290.408 55.2557 289.05 55.2557V57.2557C290.032 57.2557 290.805 57.5139 291.426 57.9879L292.64 56.3985ZM289.05 55.2557C287.665 55.2557 286.432 55.6359 285.412 56.4432L286.653 58.0113C287.27 57.5232 288.048 57.2557 289.05 57.2557V55.2557ZM285.419 56.4379C284.43 57.2068 283.711 58.2582 283.237 59.5394L285.113 60.2334C285.479 59.2418 285.999 58.5204 286.647 58.0166L285.419 56.4379ZM283.237 59.5394C282.767 60.8089 282.544 62.2429 282.544 63.8239H284.544C284.544 62.4275 284.741 61.2365 285.113 60.2334L283.237 59.5394ZM282.544 63.8239C282.544 65.4244 282.766 66.8577 283.24 68.1007L285.109 67.3879C284.742 66.4264 284.544 65.2461 284.544 63.8239H282.544ZM283.245 68.1124C283.733 69.3467 284.456 70.355 285.434 71.0854L286.631 69.4827C285.996 69.0086 285.48 68.3238 285.105 67.3763L283.245 68.1124ZM285.447 71.0948C286.465 71.83 287.686 72.1705 289.05 72.1705V70.1705C288.027 70.1705 287.237 69.92 286.618 69.4734L285.447 71.0948ZM307.476 77H306.476V78H307.476V77ZM307.476 50.8182V49.8182H306.476V50.8182H307.476ZM314.737 50.8182H315.737V49.8182H314.737V50.8182ZM314.737 77V78H315.737V77H314.737ZM308.345 46.3693L307.654 47.0924L307.66 47.0977L307.666 47.1029L308.345 46.3693ZM308.345 41.1875L309.03 41.916L309.031 41.9157L308.345 41.1875ZM313.885 41.1875L313.194 41.9106L313.2 41.9159L313.205 41.9211L313.885 41.1875ZM313.885 46.3693L314.57 47.0978L314.57 47.0975L313.885 46.3693ZM308.476 77V50.8182H306.476V77H308.476ZM307.476 51.8182H314.737V49.8182H307.476V51.8182ZM313.737 50.8182V77H315.737V50.8182H313.737ZM314.737 76H307.476V78H314.737V76ZM311.124 46.4432C310.289 46.4432 309.608 46.1757 309.025 45.6358L307.666 47.1029C308.628 47.9947 309.799 48.4432 311.124 48.4432V46.4432ZM309.036 45.6462C308.463 45.0989 308.203 44.4872 308.203 43.7614H306.203C306.203 45.0582 306.705 46.1852 307.654 47.0924L309.036 45.6462ZM308.203 43.7614C308.203 43.0509 308.46 42.4525 309.03 41.916L307.66 40.459C306.708 41.3543 306.203 42.4718 306.203 43.7614H308.203ZM309.031 41.9157C309.614 41.3663 310.294 41.0966 311.124 41.0966V39.0966C309.794 39.0966 308.622 39.5541 307.66 40.4593L309.031 41.9157ZM311.124 41.0966C311.953 41.0966 312.624 41.366 313.194 41.9106L314.576 40.4644C313.623 39.5545 312.453 39.0966 311.124 39.0966V41.0966ZM313.205 41.9211C313.786 42.4591 314.044 43.0561 314.044 43.7614H316.044C316.044 42.4666 315.529 41.3477 314.565 40.4539L313.205 41.9211ZM314.044 43.7614C314.044 44.4821 313.783 45.0924 313.2 45.6411L314.57 47.0975C315.533 46.1917 316.044 45.0633 316.044 43.7614H314.044ZM313.2 45.6408C312.631 46.1761 311.958 46.4432 311.124 46.4432V48.4432C312.448 48.4432 313.616 47.9944 314.57 47.0978L313.2 45.6408Z" fill="black"/>
<rect x="32.5" y="7.5" width="42" height="42" fill="#15D9D9" stroke="black"/>
<rect x="0.5" y="23.5" width="59" height="59" fill="#7DFFF7" stroke="black"/>
</svg>
