<svg width="331" height="117" viewBox="0 0 331 117" fill="none" xmlns="http://www.w3.org/2000/svg">
<path d="M86.0341 42.0909H95.1364L104.75 65.5455H105.159L114.773 42.0909H123.875V77H116.716V54.2784H116.426L107.392 76.8295H102.517L93.483 54.1932H93.1932V77H86.0341V42.0909ZM137.286 77.4943C135.615 77.4943 134.126 77.2045 132.82 76.625C131.513 76.0341 130.479 75.1648 129.717 74.017C128.967 72.858 128.592 71.4148 128.592 69.6875C128.592 68.233 128.859 67.0114 129.393 66.0227C129.928 65.0341 130.655 64.2386 131.575 63.6364C132.496 63.0341 133.541 62.5795 134.712 62.2727C135.893 61.9659 137.132 61.75 138.428 61.625C139.95 61.4659 141.178 61.3182 142.109 61.1818C143.041 61.0341 143.717 60.8182 144.138 60.5341C144.558 60.25 144.768 59.8295 144.768 59.2727V59.1705C144.768 58.0909 144.428 57.2557 143.746 56.6648C143.075 56.0739 142.121 55.7784 140.882 55.7784C139.575 55.7784 138.536 56.0682 137.763 56.6477C136.99 57.2159 136.479 57.9318 136.229 58.7955L129.513 58.25C129.854 56.6591 130.524 55.2841 131.524 54.125C132.524 52.9545 133.814 52.0568 135.393 51.4318C136.984 50.7955 138.825 50.4773 140.916 50.4773C142.371 50.4773 143.763 50.6477 145.092 50.9886C146.433 51.3295 147.621 51.858 148.655 52.5739C149.7 53.2898 150.524 54.2102 151.126 55.3352C151.729 56.4489 152.03 57.7841 152.03 59.3409V77H145.143V73.3693H144.939C144.518 74.1875 143.956 74.9091 143.251 75.5341C142.547 76.1477 141.7 76.6307 140.712 76.983C139.723 77.3239 138.581 77.4943 137.286 77.4943ZM139.365 72.483C140.433 72.483 141.376 72.2727 142.195 71.8523C143.013 71.4205 143.655 70.8409 144.121 70.1136C144.587 69.3864 144.82 68.5625 144.82 67.642V64.8636C144.592 65.0114 144.28 65.1477 143.882 65.2727C143.496 65.3864 143.058 65.4943 142.57 65.5966C142.081 65.6875 141.592 65.7727 141.104 65.8523C140.615 65.9205 140.172 65.983 139.774 66.0398C138.922 66.1648 138.178 66.3636 137.541 66.6364C136.905 66.9091 136.411 67.2784 136.058 67.7443C135.706 68.1989 135.53 68.767 135.53 69.4489C135.53 70.4375 135.888 71.1932 136.604 71.7159C137.331 72.2273 138.251 72.483 139.365 72.483ZM171.589 50.8182V56.2727H155.822V50.8182H171.589ZM159.402 44.5455H166.663V68.9545C166.663 69.625 166.766 70.1477 166.97 70.5227C167.175 70.8864 167.459 71.142 167.822 71.2898C168.197 71.4375 168.629 71.5114 169.118 71.5114C169.459 71.5114 169.8 71.483 170.141 71.4261C170.482 71.358 170.743 71.3068 170.925 71.2727L172.067 76.6761C171.703 76.7898 171.192 76.9205 170.533 77.0682C169.874 77.2273 169.072 77.3239 168.129 77.358C166.379 77.4261 164.845 77.1932 163.527 76.6591C162.22 76.125 161.203 75.2955 160.476 74.1705C159.749 73.0455 159.391 71.625 159.402 69.9091V44.5455ZM187.868 77.5114C185.186 77.5114 182.879 76.9432 180.947 75.8068C179.027 74.6591 177.55 73.0682 176.516 71.0341C175.493 69 174.982 66.6591 174.982 64.0114C174.982 61.3295 175.499 58.9773 176.533 56.9545C177.578 54.9205 179.061 53.3352 180.982 52.1989C182.902 51.0511 185.186 50.4773 187.834 50.4773C190.118 50.4773 192.118 50.892 193.834 51.7216C195.55 52.5511 196.908 53.7159 197.908 55.2159C198.908 56.7159 199.459 58.4773 199.561 60.5H192.709C192.516 59.1932 192.004 58.142 191.175 57.3466C190.357 56.5398 189.283 56.1364 187.953 56.1364C186.828 56.1364 185.845 56.4432 185.004 57.0568C184.175 57.6591 183.527 58.5398 183.061 59.6989C182.595 60.858 182.362 62.2614 182.362 63.9091C182.362 65.5795 182.589 67 183.044 68.1705C183.51 69.3409 184.163 70.233 185.004 70.8466C185.845 71.4602 186.828 71.767 187.953 71.767C188.783 71.767 189.527 71.5966 190.186 71.2557C190.857 70.9148 191.408 70.4205 191.839 69.7727C192.283 69.1136 192.572 68.3239 192.709 67.4034H199.561C199.447 69.4034 198.902 71.1648 197.925 72.6875C196.959 74.1989 195.624 75.3807 193.919 76.233C192.214 77.0852 190.197 77.5114 187.868 77.5114ZM211.472 61.8636V77H204.21V42.0909H211.267V55.4375H211.574C212.165 53.892 213.119 52.6818 214.438 51.8068C215.756 50.9205 217.409 50.4773 219.398 50.4773C221.216 50.4773 222.801 50.875 224.153 51.6705C225.517 52.4545 226.574 53.5852 227.324 55.0625C228.085 56.5284 228.46 58.2841 228.449 60.3295V77H221.188V61.625C221.199 60.0114 220.79 58.7557 219.96 57.858C219.142 56.9602 217.994 56.5114 216.517 56.5114C215.528 56.5114 214.653 56.7216 213.892 57.142C213.142 57.5625 212.551 58.1761 212.119 58.983C211.699 59.7784 211.483 60.7386 211.472 61.8636ZM234.163 77V50.8182H241.425V77H234.163ZM237.811 47.4432C236.732 47.4432 235.805 47.0852 235.033 46.3693C234.271 45.642 233.891 44.7727 233.891 43.7614C233.891 42.7614 234.271 41.9034 235.033 41.1875C235.805 40.4602 236.732 40.0966 237.811 40.0966C238.891 40.0966 239.811 40.4602 240.572 41.1875C241.345 41.9034 241.732 42.7614 241.732 43.7614C241.732 44.7727 241.345 45.642 240.572 46.3693C239.811 47.0852 238.891 47.4432 237.811 47.4432ZM254.503 61.8636V77H247.241V50.8182H254.162V55.4375H254.469C255.048 53.9148 256.02 52.7102 257.384 51.8239C258.747 50.9261 260.401 50.4773 262.344 50.4773C264.162 50.4773 265.747 50.875 267.099 51.6705C268.452 52.4659 269.503 53.6023 270.253 55.0795C271.003 56.5455 271.378 58.2955 271.378 60.3295V77H264.116V61.625C264.128 60.0227 263.719 58.7727 262.889 57.875C262.06 56.9659 260.918 56.5114 259.463 56.5114C258.486 56.5114 257.622 56.7216 256.872 57.142C256.134 57.5625 255.554 58.1761 255.134 58.983C254.724 59.7784 254.514 60.7386 254.503 61.8636ZM288.896 87.3636C286.544 87.3636 284.527 87.0398 282.845 86.392C281.175 85.7557 279.845 84.8864 278.857 83.7841C277.868 82.6818 277.226 81.4432 276.93 80.0682L283.646 79.1648C283.851 79.6875 284.175 80.1761 284.618 80.6307C285.061 81.0852 285.646 81.4489 286.374 81.7216C287.112 82.0057 288.01 82.1477 289.067 82.1477C290.646 82.1477 291.947 81.7614 292.97 80.9886C294.004 80.2273 294.521 78.9489 294.521 77.1534V72.3636H294.214C293.896 73.0909 293.419 73.7784 292.783 74.4261C292.146 75.0739 291.328 75.6023 290.328 76.0114C289.328 76.4205 288.135 76.625 286.749 76.625C284.783 76.625 282.993 76.1705 281.379 75.2614C279.777 74.3409 278.499 72.9375 277.544 71.0511C276.601 69.1534 276.129 66.7557 276.129 63.858C276.129 60.892 276.612 58.4148 277.578 56.4261C278.544 54.4375 279.828 52.9489 281.43 51.9602C283.044 50.9716 284.811 50.4773 286.732 50.4773C288.197 50.4773 289.425 50.7273 290.413 51.2273C291.402 51.7159 292.197 52.3295 292.8 53.0682C293.413 53.7955 293.885 54.5114 294.214 55.2159H294.487V50.8182H301.697V77.2557C301.697 79.483 301.152 81.3466 300.061 82.8466C298.97 84.3466 297.459 85.4716 295.527 86.2216C293.607 86.983 291.396 87.3636 288.896 87.3636ZM289.05 71.1705C290.22 71.1705 291.209 70.8807 292.016 70.3011C292.834 69.7102 293.459 68.8693 293.891 67.7784C294.334 66.6761 294.555 65.358 294.555 63.8239C294.555 62.2898 294.339 60.9602 293.908 59.8352C293.476 58.6989 292.851 57.8182 292.033 57.1932C291.214 56.5682 290.22 56.2557 289.05 56.2557C287.857 56.2557 286.851 56.5795 286.033 57.2273C285.214 57.8636 284.595 58.75 284.175 59.8864C283.754 61.0227 283.544 62.3352 283.544 63.8239C283.544 65.3352 283.754 66.642 284.175 67.7443C284.607 68.8352 285.226 69.6818 286.033 70.2841C286.851 70.875 287.857 71.1705 289.05 71.1705ZM307.476 77V50.8182H314.737V77H307.476ZM311.124 47.4432C310.044 47.4432 309.118 47.0852 308.345 46.3693C307.584 45.642 307.203 44.7727 307.203 43.7614C307.203 42.7614 307.584 41.9034 308.345 41.1875C309.118 40.4602 310.044 40.0966 311.124 40.0966C312.203 40.0966 313.124 40.4602 313.885 41.1875C314.658 41.9034 315.044 42.7614 315.044 43.7614C315.044 44.7727 314.658 45.642 313.885 46.3693C313.124 47.0852 312.203 47.4432 311.124 47.4432Z" fill="white"/>
<rect x="32.5" y="7.5" width="42" height="42" fill="#15D9D9" stroke="black"/>
<rect x="0.5" y="23.5" width="59" height="59" fill="#7DFFF7" stroke="black"/>
</svg>
