<svg width="331" height="117" viewBox="0 0 331 117" fill="none" xmlns="http://www.w3.org/2000/svg">
<path d="M41.5 68.875C44.7278 68.875 47.6386 68.0819 50.2323 66.4957C52.8261 64.9117 54.8723 62.8229 56.3709 60.2292C54.3535 58.5576 52.0768 57.2746 49.5407 56.38C47.0046 55.4878 44.3243 55.0417 41.5 55.0417C38.6757 55.0417 35.9955 55.4878 33.4594 56.38C30.9233 57.2746 28.6466 58.5576 26.6292 60.2292C28.1278 62.8229 30.174 64.9117 32.7677 66.4957C35.3615 68.0819 38.2723 68.875 41.5 68.875ZM41.5 51.5833C43.4021 51.5833 45.031 50.9055 46.3867 49.5498C47.74 48.1965 48.4167 46.5687 48.4167 44.6667C48.4167 42.7646 47.74 41.1368 46.3867 39.7835C45.031 38.4278 43.4021 37.75 41.5 37.75C39.598 37.75 37.9702 38.4278 36.6169 39.7835C35.2612 41.1368 34.5834 42.7646 34.5834 44.6667C34.5834 46.5687 35.2612 48.1965 36.6169 49.5498C37.9702 50.9055 39.598 51.5833 41.5 51.5833ZM41.5 93.0833C32.2202 85.1868 25.2897 77.8517 20.7085 71.0779C16.1251 64.3065 13.8334 58.0389 13.8334 52.275C13.8334 43.6292 16.615 36.7413 22.1783 31.6114C27.7393 26.4816 34.1799 23.9167 41.5 23.9167C48.8202 23.9167 55.2607 26.4816 60.8217 31.6114C66.3851 36.7413 69.1667 43.6292 69.1667 52.275C69.1667 58.0389 66.8761 64.3065 62.295 71.0779C57.7116 77.8517 50.7799 85.1868 41.5 93.0833Z" fill="#16A34A"/>
<path d="M118.812 44.3594V76H112.297V56.875L104.234 65.6875H102.359L94.2031 56.875V76H87.6875V44.3594H89.8906L103.297 58.3281L116.609 44.3594H118.812ZM136.531 51.7188C137.812 51.7188 139.109 52.0156 140.422 52.6094C141.734 53.2031 142.828 54 143.703 55V52.3281H149.656V76H143.703V72.0156C143.016 73.2969 142.016 74.4062 140.703 75.3438C139.391 76.25 137.859 76.7031 136.109 76.7031C134.203 76.7031 132.438 76.2188 130.812 75.25C129.219 74.2812 127.938 72.875 126.969 71.0312C126 69.1875 125.516 66.9531 125.516 64.3281C125.516 61.7031 126 59.4531 126.969 57.5781C127.969 55.7031 129.297 54.2656 130.953 53.2656C132.641 52.2344 134.5 51.7188 136.531 51.7188ZM137.75 57.5312C136.5 57.5312 135.422 57.8594 134.516 58.5156C133.641 59.1406 132.953 59.9688 132.453 61C131.953 62.0312 131.703 63.1406 131.703 64.3281C131.703 66.1094 132.234 67.625 133.297 68.875C134.391 70.125 135.828 70.75 137.609 70.75C138.672 70.75 139.656 70.4688 140.562 69.9062C141.5 69.3438 142.25 68.5625 142.812 67.5625C143.406 66.5312 143.703 65.2969 143.703 63.8594V60.4844C142.859 59.5781 141.938 58.8594 140.938 58.3281C139.969 57.7969 138.906 57.5312 137.75 57.5312ZM165.547 45.4375V52.3281H172.109V57.2969H165.547V67.5156C165.547 68.5781 165.781 69.4219 166.25 70.0469C166.75 70.6406 167.484 70.9375 168.453 70.9375C169.297 70.9375 170.016 70.8438 170.609 70.6562C171.234 70.4688 171.812 70.2031 172.344 69.8594V74.5938C171.75 75.1875 171 75.6875 170.094 76.0938C169.219 76.5 168.109 76.7031 166.766 76.7031C164.641 76.7031 162.906 76.0312 161.562 74.6875C160.25 73.3125 159.594 71.4375 159.594 69.0625V57.2969H155.328V54.25C156.828 53.7188 158.203 52.7188 159.453 51.25C160.734 49.7812 161.75 47.8438 162.5 45.4375H165.547ZM188.984 51.7188C190.734 51.7188 192.172 52 193.297 52.5625C194.422 53.125 195.312 53.6719 195.969 54.2031V59.6875C195.156 59.0938 194.234 58.5938 193.203 58.1875C192.203 57.7812 190.969 57.5781 189.5 57.5781C188.312 57.5781 187.203 57.875 186.172 58.4688C185.172 59.0625 184.375 59.8594 183.781 60.8594C183.188 61.8594 182.891 63 182.891 64.2812C182.891 66.2188 183.516 67.8125 184.766 69.0625C186.016 70.3125 187.594 70.9375 189.5 70.9375C190.969 70.9375 192.203 70.75 193.203 70.375C194.234 69.9688 195.156 69.4688 195.969 68.875V74.3125C195.312 74.875 194.422 75.4219 193.297 75.9531C192.172 76.4531 190.734 76.7031 188.984 76.7031C186.578 76.7031 184.438 76.1406 182.562 75.0156C180.719 73.8594 179.25 72.3438 178.156 70.4688C177.094 68.5625 176.562 66.5 176.562 64.2812C176.562 62.625 176.859 61.0469 177.453 59.5469C178.078 58.0469 178.953 56.7188 180.078 55.5625C181.203 54.375 182.516 53.4375 184.016 52.75C185.547 52.0625 187.203 51.7188 188.984 51.7188ZM214.391 51.7188C216.797 51.7188 218.812 52.5312 220.438 54.1562C222.062 55.7812 222.875 58.2188 222.875 61.4688V76H216.922L216.875 62.2656C216.875 60.6719 216.484 59.4844 215.703 58.7031C214.953 57.9219 213.906 57.5312 212.562 57.5312C211.5 57.5312 210.5 57.875 209.562 58.5625C208.656 59.25 207.875 60.0625 207.219 61V76H201.266V42.25H207.219V55.7031C207.938 54.7344 208.906 53.8281 210.125 52.9844C211.375 52.1406 212.797 51.7188 214.391 51.7188ZM234.688 40C235.812 40 236.781 40.4062 237.594 41.2188C238.406 42 238.812 42.9375 238.812 44.0312C238.812 45.0938 238.406 46.0312 237.594 46.8438C236.781 47.6562 235.812 48.0625 234.688 48.0625C233.562 48.0625 232.594 47.6562 231.781 46.8438C231 46.0312 230.609 45.0938 230.609 44.0312C230.609 42.9375 231 42 231.781 41.2188C232.594 40.4062 233.562 40 234.688 40ZM238.156 52.3281V76H232.203V57.3906H228.406V52.3281H238.156ZM251.609 52.3281V55.7031C252.328 54.7344 253.297 53.8281 254.516 52.9844C255.766 52.1406 257.188 51.7188 258.781 51.7188C261.188 51.7188 263.203 52.5312 264.828 54.1562C266.453 55.7812 267.266 58.2188 267.266 61.4688V76H261.312L261.266 62.2656C261.266 60.6719 260.875 59.4844 260.094 58.7031C259.344 57.9219 258.297 57.5312 256.953 57.5312C255.891 57.5312 254.891 57.875 253.953 58.5625C253.047 59.25 252.266 60.0625 251.609 61V76H245.656V52.3281H251.609ZM283.484 51.7188C284.766 51.7188 286.062 52.0156 287.375 52.6094C288.688 53.2031 289.781 54 290.656 55V52.3281H296.609V75.3906C296.609 78.0781 296.016 80.3438 294.828 82.1875C293.641 84.0625 292.062 85.4844 290.094 86.4531C288.125 87.4531 285.969 87.9531 283.625 87.9531C281.531 87.9531 279.812 87.6406 278.469 87.0156C277.125 86.3906 275.875 85.6719 274.719 84.8594V79.2344C275.438 79.6719 276.188 80.1406 276.969 80.6406C277.781 81.1406 278.688 81.5625 279.688 81.9062C280.719 82.25 281.906 82.4219 283.25 82.4219C284.656 82.4219 285.922 82.1562 287.047 81.625C288.172 81.0938 289.047 80.3438 289.672 79.375C290.328 78.4375 290.656 77.3594 290.656 76.1406V72.0156C289.969 73.2969 288.969 74.4062 287.656 75.3438C286.344 76.25 284.812 76.7031 283.062 76.7031C281.156 76.7031 279.391 76.2188 277.766 75.25C276.172 74.2812 274.891 72.875 273.922 71.0312C272.953 69.1875 272.469 66.9531 272.469 64.3281C272.469 61.7031 272.953 59.4531 273.922 57.5781C274.922 55.7031 276.25 54.2656 277.906 53.2656C279.594 52.2344 281.453 51.7188 283.484 51.7188ZM284.703 57.5781C283.453 57.5781 282.375 57.9062 281.469 58.5625C280.594 59.1875 279.906 60.0156 279.406 61.0469C278.906 62.0469 278.656 63.1406 278.656 64.3281C278.656 66.1094 279.188 67.625 280.25 68.875C281.344 70.0938 282.781 70.7031 284.562 70.7031C285.625 70.7031 286.609 70.4375 287.516 69.9062C288.453 69.3438 289.203 68.5625 289.766 67.5625C290.359 66.5312 290.656 65.2969 290.656 63.8594V60.4844C289.812 59.5781 288.891 58.875 287.891 58.375C286.922 57.8438 285.859 57.5781 284.703 57.5781ZM308.891 40C310.016 40 310.984 40.4062 311.797 41.2188C312.609 42 313.016 42.9375 313.016 44.0312C313.016 45.0938 312.609 46.0312 311.797 46.8438C310.984 47.6562 310.016 48.0625 308.891 48.0625C307.766 48.0625 306.797 47.6562 305.984 46.8438C305.203 46.0312 304.812 45.0938 304.812 44.0312C304.812 42.9375 305.203 42 305.984 41.2188C306.797 40.4062 307.766 40 308.891 40ZM312.359 52.3281V76H306.406V57.3906H302.609V52.3281H312.359Z" fill="#16A34A"/>
</svg>
