<svg viewBox="0 0 1024 1024" version="1.1" xmlns="http://www.w3.org/2000/svg"><path d="M825.6512 540.3648c-7.424 2.1504-15.3088-1.6384-18.0224-8.9088-8.7552-23.552-40.704-78.1312-121.1904-77.4656-107.9296 0.8704-147.5584 126.5152-127.8464 199.5264 18.3808 68.096 37.5808 112.1792 105.216 209.7664 3.1744 4.608 8.704 7.0656 14.2336 6.2464 122.2656-17.8688 189.3888-47.2576 247.552-81.2544 59.5968-34.7648 78.336-106.752 62.464-158.208-6.5024-25.6512-51.0976-121.6512-162.4064-89.7024z" fill="#A5ADF6" /><path d="M495.6672 670.464c-18.0736-66.8672-1.3312-149.8624 41.6768-206.4896 36.4544-47.9744 89.1904-74.7008 148.5824-75.1616 78.7968-0.6144 132.4544 36.8128 162.6112 80.9984 8.2432-0.8192 16.1792-1.0752 23.7568-0.9216 1.3312-4.352 2.6112-8.6528 3.8912-13.0048 36.7104-124.4672-30.464-247.1424-118.528-297.0624-41.9328-26.624-226.7648-100.5568-337.92 86.6816-7.424 12.4928-23.0912 17.5104-36.1472 11.0592-42.3424-20.9408-158.976-56.9344-265.8304 50.2784-166.144 166.7072-38.8608 363.4688 82.2784 437.9136 111.5136 68.5568 193.9968 104.1408 406.016 149.5552-70.144-101.9904-90.9824-152.0128-110.3872-223.8464z" fill="#A5ADF6" /><path d="M849.8688 535.296c-7.7312 1.024-15.7696 2.6624-24.2176 5.0688-7.424 2.1504-15.3088-1.6384-18.0224-8.9088-8.7552-23.552-40.704-78.1312-121.1904-77.4656-107.9296 0.8704-147.5584 126.5152-127.8464 199.5264 18.2272 67.4816 37.2736 111.4112 103.4752 207.2064 100.1984-130.6624 153.1904-232.448 187.8016-325.4272z" fill="#635DF7" /><path d="M257.2288 592.896c-80.3328-104.448-28.0064-159.744-21.76-165.6832l-0.4096 0.3584-0.1024-0.1024c0.1536-0.1024 0.3072-0.1536 0.4608-0.256 15.4624-11.2128 29.184-38.912 3.84-59.8016-30.0032-24.7296-59.5456 12.8-63.1296 18.3296-35.1744 42.1376-65.2288 134.6048 24.2176 250.88a35.77344 35.77344 0 0 0 28.416 13.9776c7.6288 0 15.3088-2.4064 21.8112-7.424 15.7696-12.1344 18.688-34.6112 6.656-50.2784z" fill="#FFFFFF" /></svg>