<svg width="228" height="48" viewBox="0 0 228 48" fill="none" xmlns="http://www.w3.org/2000/svg">
<path d="M0.0340909 2.09091H9.13636L18.75 25.5455H19.1591L28.7727 2.09091H37.875V37H30.7159V14.2784H30.4261L21.392 36.8295H16.517L7.48295 14.1932H7.19318V37H0.0340909V2.09091ZM51.2855 37.4943C49.6151 37.4943 48.1264 37.2045 46.8196 36.625C45.5128 36.0341 44.4787 35.1648 43.7173 34.017C42.9673 32.858 42.5923 31.4148 42.5923 29.6875C42.5923 28.233 42.8594 27.0114 43.3935 26.0227C43.9276 25.0341 44.6548 24.2386 45.5753 23.6364C46.4957 23.0341 47.5412 22.5795 48.7116 22.2727C49.8935 21.9659 51.1321 21.75 52.4276 21.625C53.9503 21.4659 55.1776 21.3182 56.1094 21.1818C57.0412 21.0341 57.7173 20.8182 58.1378 20.5341C58.5582 20.25 58.7685 19.8295 58.7685 19.2727V19.1705C58.7685 18.0909 58.4276 17.2557 57.7457 16.6648C57.0753 16.0739 56.1207 15.7784 54.8821 15.7784C53.5753 15.7784 52.5355 16.0682 51.7628 16.6477C50.9901 17.2159 50.4787 17.9318 50.2287 18.7955L43.5128 18.25C43.8537 16.6591 44.5241 15.2841 45.5241 14.125C46.5241 12.9545 47.8139 12.0568 49.3935 11.4318C50.9844 10.7955 52.8253 10.4773 54.9162 10.4773C56.3707 10.4773 57.7628 10.6477 59.0923 10.9886C60.4332 11.3295 61.6207 11.858 62.6548 12.5739C63.7003 13.2898 64.5241 14.2102 65.1264 15.3352C65.7287 16.4489 66.0298 17.7841 66.0298 19.3409V37H59.1435V33.3693H58.9389C58.5185 34.1875 57.956 34.9091 57.2514 35.5341C56.5469 36.1477 55.7003 36.6307 54.7116 36.983C53.723 37.3239 52.581 37.4943 51.2855 37.4943ZM53.3651 32.483C54.4332 32.483 55.3764 32.2727 56.1946 31.8523C57.0128 31.4205 57.6548 30.8409 58.1207 30.1136C58.5866 29.3864 58.8196 28.5625 58.8196 27.642V24.8636C58.5923 25.0114 58.2798 25.1477 57.8821 25.2727C57.4957 25.3864 57.0582 25.4943 56.5696 25.5966C56.081 25.6875 55.5923 25.7727 55.1037 25.8523C54.6151 25.9205 54.1719 25.983 53.7741 26.0398C52.9219 26.1648 52.1776 26.3636 51.5412 26.6364C50.9048 26.9091 50.4105 27.2784 50.0582 27.7443C49.706 28.1989 49.5298 28.767 49.5298 29.4489C49.5298 30.4375 49.8878 31.1932 50.6037 31.7159C51.331 32.2273 52.2514 32.483 53.3651 32.483ZM85.5895 10.8182V16.2727H69.8224V10.8182H85.5895ZM73.402 4.54545H80.6634V28.9545C80.6634 29.625 80.7656 30.1477 80.9702 30.5227C81.1747 30.8864 81.4588 31.142 81.8224 31.2898C82.1974 31.4375 82.6293 31.5114 83.1179 31.5114C83.4588 31.5114 83.7997 31.483 84.1406 31.4261C84.4815 31.358 84.7429 31.3068 84.9247 31.2727L86.0668 36.6761C85.7031 36.7898 85.1918 36.9205 84.5327 37.0682C83.8736 37.2273 83.0724 37.3239 82.1293 37.358C80.3793 37.4261 78.8452 37.1932 77.527 36.6591C76.2202 36.125 75.2031 35.2955 74.4759 34.1705C73.7486 33.0455 73.3906 31.625 73.402 29.9091V4.54545ZM101.868 37.5114C99.1861 37.5114 96.8793 36.9432 94.9474 35.8068C93.027 34.6591 91.5497 33.0682 90.5156 31.0341C89.4929 29 88.9815 26.6591 88.9815 24.0114C88.9815 21.3295 89.4986 18.9773 90.5327 16.9545C91.5781 14.9205 93.0611 13.3352 94.9815 12.1989C96.902 11.0511 99.1861 10.4773 101.834 10.4773C104.118 10.4773 106.118 10.892 107.834 11.7216C109.55 12.5511 110.908 13.7159 111.908 15.2159C112.908 16.7159 113.459 18.4773 113.561 20.5H106.709C106.516 19.1932 106.004 18.142 105.175 17.3466C104.357 16.5398 103.283 16.1364 101.953 16.1364C100.828 16.1364 99.8452 16.4432 99.0043 17.0568C98.1747 17.6591 97.527 18.5398 97.0611 19.6989C96.5952 20.858 96.3622 22.2614 96.3622 23.9091C96.3622 25.5795 96.5895 27 97.044 28.1705C97.5099 29.3409 98.1634 30.233 99.0043 30.8466C99.8452 31.4602 100.828 31.767 101.953 31.767C102.783 31.767 103.527 31.5966 104.186 31.2557C104.857 30.9148 105.408 30.4205 105.839 29.7727C106.283 29.1136 106.572 28.3239 106.709 27.4034H113.561C113.447 29.4034 112.902 31.1648 111.925 32.6875C110.959 34.1989 109.624 35.3807 107.919 36.233C106.214 37.0852 104.197 37.5114 101.868 37.5114ZM125.472 21.8636V37H118.21V2.09091H125.267V15.4375H125.574C126.165 13.892 127.119 12.6818 128.438 11.8068C129.756 10.9205 131.409 10.4773 133.398 10.4773C135.216 10.4773 136.801 10.875 138.153 11.6705C139.517 12.4545 140.574 13.5852 141.324 15.0625C142.085 16.5284 142.46 18.2841 142.449 20.3295V37H135.188V21.625C135.199 20.0114 134.79 18.7557 133.96 17.858C133.142 16.9602 131.994 16.5114 130.517 16.5114C129.528 16.5114 128.653 16.7216 127.892 17.142C127.142 17.5625 126.551 18.1761 126.119 18.983C125.699 19.7784 125.483 20.7386 125.472 21.8636ZM148.163 37V10.8182H155.425V37H148.163ZM151.811 7.44318C150.732 7.44318 149.805 7.08523 149.033 6.36932C148.271 5.64204 147.891 4.77273 147.891 3.76136C147.891 2.76136 148.271 1.90341 149.033 1.1875C149.805 0.460226 150.732 0.0965891 151.811 0.0965891C152.891 0.0965891 153.811 0.460226 154.572 1.1875C155.345 1.90341 155.732 2.76136 155.732 3.76136C155.732 4.77273 155.345 5.64204 154.572 6.36932C153.811 7.08523 152.891 7.44318 151.811 7.44318ZM168.503 21.8636V37H161.241V10.8182H168.162V15.4375H168.469C169.048 13.9148 170.02 12.7102 171.384 11.8239C172.747 10.9261 174.401 10.4773 176.344 10.4773C178.162 10.4773 179.747 10.875 181.099 11.6705C182.452 12.4659 183.503 13.6023 184.253 15.0795C185.003 16.5455 185.378 18.2955 185.378 20.3295V37H178.116V21.625C178.128 20.0227 177.719 18.7727 176.889 17.875C176.06 16.9659 174.918 16.5114 173.463 16.5114C172.486 16.5114 171.622 16.7216 170.872 17.142C170.134 17.5625 169.554 18.1761 169.134 18.983C168.724 19.7784 168.514 20.7386 168.503 21.8636ZM202.896 47.3636C200.544 47.3636 198.527 47.0398 196.845 46.392C195.175 45.7557 193.845 44.8864 192.857 43.7841C191.868 42.6818 191.226 41.4432 190.93 40.0682L197.646 39.1648C197.851 39.6875 198.175 40.1761 198.618 40.6307C199.061 41.0852 199.646 41.4489 200.374 41.7216C201.112 42.0057 202.01 42.1477 203.067 42.1477C204.646 42.1477 205.947 41.7614 206.97 40.9886C208.004 40.2273 208.521 38.9489 208.521 37.1534V32.3636H208.214C207.896 33.0909 207.419 33.7784 206.783 34.4261C206.146 35.0739 205.328 35.6023 204.328 36.0114C203.328 36.4205 202.135 36.625 200.749 36.625C198.783 36.625 196.993 36.1705 195.379 35.2614C193.777 34.3409 192.499 32.9375 191.544 31.0511C190.601 29.1534 190.129 26.7557 190.129 23.858C190.129 20.892 190.612 18.4148 191.578 16.4261C192.544 14.4375 193.828 12.9489 195.43 11.9602C197.044 10.9716 198.811 10.4773 200.732 10.4773C202.197 10.4773 203.425 10.7273 204.413 11.2273C205.402 11.7159 206.197 12.3295 206.8 13.0682C207.413 13.7955 207.885 14.5114 208.214 15.2159H208.487V10.8182H215.697V37.2557C215.697 39.483 215.152 41.3466 214.061 42.8466C212.97 44.3466 211.459 45.4716 209.527 46.2216C207.607 46.983 205.396 47.3636 202.896 47.3636ZM203.05 31.1705C204.22 31.1705 205.209 30.8807 206.016 30.3011C206.834 29.7102 207.459 28.8693 207.891 27.7784C208.334 26.6761 208.555 25.358 208.555 23.8239C208.555 22.2898 208.339 20.9602 207.908 19.8352C207.476 18.6989 206.851 17.8182 206.033 17.1932C205.214 16.5682 204.22 16.2557 203.05 16.2557C201.857 16.2557 200.851 16.5795 200.033 17.2273C199.214 17.8636 198.595 18.75 198.175 19.8864C197.754 21.0227 197.544 22.3352 197.544 23.8239C197.544 25.3352 197.754 26.642 198.175 27.7443C198.607 28.8352 199.226 29.6818 200.033 30.2841C200.851 30.875 201.857 31.1705 203.05 31.1705ZM222.26 37V10.8182H226.283V37H222.26ZM224.305 6.45455C223.521 6.45455 222.845 6.1875 222.277 5.65341C221.72 5.11932 221.442 4.47727 221.442 3.72727C221.442 2.97727 221.72 2.33523 222.277 1.80114C222.845 1.26705 223.521 1 224.305 1C225.089 1 225.76 1.26705 226.317 1.80114C226.885 2.33523 227.169 2.97727 227.169 3.72727C227.169 4.47727 226.885 5.11932 226.317 5.65341C225.76 6.1875 225.089 6.45455 224.305 6.45455Z" fill="black"/>
</svg>
