<svg viewBox="0 0 1024 1024" version="1.1" xmlns="http://www.w3.org/2000/svg"><path d="M697.0368 938.0352H239.5648c-73.5232 0-133.12-59.5968-133.12-133.12V219.648c0-73.5232 59.5968-133.12 133.12-133.12h457.472c73.5232 0 133.12 59.5968 133.12 133.12v585.2672c0 73.5232-59.5968 133.12-133.12 133.12z" fill="#FFD05C" /><path d="M632.2688 328.192h-325.12c-22.6304 0-40.96-18.3296-40.96-40.96s18.3296-40.96 40.96-40.96h325.12c22.6304 0 40.96 18.3296 40.96 40.96s-18.3296 40.96-40.96 40.96zM632.2688 490.5984h-325.12c-22.6304 0-40.96-18.3296-40.96-40.96s18.3296-40.96 40.96-40.96h325.12c22.6304 0 40.96 18.3296 40.96 40.96s-18.3296 40.96-40.96 40.96zM462.848 653.0048H307.1488c-22.6304 0-40.96-18.3296-40.96-40.96s18.3296-40.96 40.96-40.96H462.848c22.6304 0 40.96 18.3296 40.96 40.96s-18.3296 40.96-40.96 40.96z" fill="#FFFFFF" /><path d="M912.64 854.528l-54.1184-50.688a169.1136 169.1136 0 0 0 22.784-84.8384c0-93.6448-76.1856-169.8816-169.8816-169.8816s-169.8816 76.1856-169.8816 169.8816c0 93.6448 76.1856 169.8816 169.8816 169.8816 33.1264 0 64.0512-9.5744 90.2144-26.0608l54.9376 51.456a40.704 40.704 0 0 0 28.0064 11.0592c10.9056 0 21.8112-4.352 29.9008-12.9536a40.9344 40.9344 0 0 0-1.8432-57.856z m-289.1776-135.5264c0-48.4864 39.4752-87.9616 87.9616-87.9616s87.9616 39.4752 87.9616 87.9616c0 48.4864-39.4752 87.9616-87.9616 87.9616s-87.9616-39.4752-87.9616-87.9616z" fill="#FFD05C" /><path d="M830.1568 597.6576c-30.6688-30.0032-72.5504-48.5376-118.7328-48.5376-93.6448 0-169.8816 76.1856-169.8816 169.8816 0 93.6448 76.1856 169.8816 169.8816 169.8816 33.1264 0 64.0512-9.5744 90.2144-26.0608l10.1376 9.5232c11.6224-19.7632 18.3296-42.8032 18.3296-67.4304v-207.2576z m-118.7328 209.3056c-48.4864 0-87.9616-39.4752-87.9616-87.9616 0-48.4864 39.4752-87.9616 87.9616-87.9616s87.9616 39.4752 87.9616 87.9616c0 48.4864-39.4752 87.9616-87.9616 87.9616z" fill="#FCA235" /></svg>