<svg viewBox="0 0 1024 1024" version="1.1" xmlns="http://www.w3.org/2000/svg"><path d="M722.192767 0l124.693517 81.915449v465.609688a271.856897 271.856897 0 0 0-189.827676 51.766013v-506.282984l-323.850453 143.352036V335.056941l133.965891-46.532526 122.873174 70.765847-0.056886 311.108049a271.800011 271.800011 0 0 0-44.08644 148.813066c0 81.403478 35.610466 154.501639 92.154881 204.504194H411.31226V370.382979L81.943892 478.352092v545.306594H0.028443v-61.436587h24.176435V442.969168L273.648797 355.478918V201.034165L722.192767 0z" fill="#9DD0F6" /><path d="M121.024388 617.892784l238.237431-76.283762V437.394367l-238.237431 81.915449v98.582968zM121.024388 751.91556l238.237431-52.107327v-102.394312l-238.237431 61.436587zM121.024388 889.692795l238.237431-31.685351v-102.394311l-238.237431 35.382923v98.639853zM121.024388 1023.658686l238.237431-5.574802v-102.394311l-238.237431 11.206488v96.762625zM818.955391 614.365869a204.788623 204.788623 0 1 1 0 409.577245 204.788623 204.788623 0 0 1 0-409.577245z m0 67.068274c-46.07744 0-83.622021 37.203266-83.622021 82.939392 0 30.320093 16.496861 56.885729 40.957725 71.391589a118.436087 118.436087 0 0 0-76.454419 110.358314h22.64052c0-52.789956 43.233154-95.738681 96.478195-95.738682 53.188156 0 96.478196 42.948725 96.478196 95.738682h22.64052c0-50.286984-31.856008-93.292595-76.511305-110.358314 24.517749-14.505861 40.957725-41.071496 40.957725-71.391589 0-45.736126-37.487695-82.939392-83.622021-82.939392z m0 22.469862a60.86773 60.86773 0 0 1 60.981501 60.46953 60.86773 60.86773 0 0 1-60.981501 60.526415 60.86773 60.86773 0 0 1-60.981501-60.526415c0-33.335037 27.30515-60.469529 60.981501-60.46953z" fill="#0B89E9" fill-opacity=".9" /></svg>