<svg viewBox="0 0 1024 1024" version="1.1" xmlns="http://www.w3.org/2000/svg"><path d="M624.9984 729.8048H193.5872c-58.4704 0-105.8816-47.4112-105.8816-105.8816V192.512c0-58.4704 47.4112-105.8816 105.8816-105.8816h431.4112c58.4704 0 105.8816 47.4112 105.8816 105.8816v431.4112c0.0512 58.4704-47.36 105.8816-105.8816 105.8816z" fill="#FFAC3E" /><path d="M835.7888 941.6704H404.3776c-58.4704 0-105.8816-47.4112-105.8816-105.8816V404.3776c0-58.4704 47.4112-105.8816 105.8816-105.8816h431.4112c58.4704 0 105.8816 47.4112 105.8816 105.8816v431.4112c0 58.4704-47.4112 105.8816-105.8816 105.8816z" fill="#FFAC3E" /><path d="M400.64 298.496c-56.4224 0-102.144 45.7216-102.144 102.144v329.1648h330.2912c56.4224 0 102.144-45.7216 102.144-102.144V298.496H400.64z" fill="#FF7C0E" /><path d="M750.2848 579.1232h-89.2416V489.8816c0-22.6304-18.3296-40.96-40.96-40.96s-40.96 18.3296-40.96 40.96v89.2416H489.8816c-22.6304 0-40.96 18.3296-40.96 40.96s18.3296 40.96 40.96 40.96h89.2416v89.2416c0 22.6304 18.3296 40.96 40.96 40.96s40.96-18.3296 40.96-40.96v-89.2416h89.2416c22.6304 0 40.96-18.3296 40.96-40.96s-18.3808-40.96-40.96-40.96z" fill="#FFFFFF" /></svg>