<svg viewBox="0 0 1024 1024" version="1.1" xmlns="http://www.w3.org/2000/svg"><path d="M626.432 934.1952H223.8464c-73.5232 0-133.12-59.5968-133.12-133.12V398.4896c0-73.5232 59.5968-133.12 133.12-133.12h402.5856c73.5232 0 133.12 59.5968 133.12 133.12v402.5856c0 73.5232-59.5968 133.12-133.12 133.12z" fill="#4BE2AC" /><path d="M806.144 754.4832H403.6096c-73.5232 0-133.12-59.5968-133.12-133.12V218.7776c0-73.5232 59.5968-133.12 133.12-133.12h402.5856c73.5232 0 133.12 59.5968 133.12 133.12v402.5856c-0.0512 73.5232-59.648 133.12-133.1712 133.12z" fill="#4BE2AC" /><path d="M623.5136 265.3696H270.4896v353.0752c0 75.1104 60.928 136.0384 136.0384 136.0384h353.0752V401.408c-0.0512-75.1104-60.928-136.0384-136.0896-136.0384z" fill="#06CC76" /></svg>