<svg viewBox="0 0 1024 1024" version="1.1" xmlns="http://www.w3.org/2000/svg"><path d="M416.540444 161.166222H397.084444c-3.413333 0-6.087111 2.958222-6.087111 6.712889v21.504c0 3.811556 2.844444 6.826667 6.087111 6.826667h19.456c3.413333 0 6.087111-3.015111 6.087112-6.826667v-21.504c0.113778-3.754667-2.673778-6.712889-6.087112-6.712889z m58.936889 216.917334h-19.456c-3.413333 0-6.087111 3.072-6.087111 6.712888v21.504c0 3.754667 2.787556 6.769778 6.087111 6.769778h19.456c3.413333 0 6.087111-3.015111 6.087111-6.769778v-21.504c0.113778-3.640889-2.673778-6.712889-6.087111-6.712888z m0-54.215112h-19.456c-3.413333 0-6.087111 3.015111-6.087111 6.826667v21.447111c0 3.754667 2.787556 6.769778 6.087111 6.769778h19.456c3.413333 0 6.087111-3.015111 6.087111-6.826667v-21.447111c0.113778-3.754667-2.673778-6.769778-6.087111-6.769778zM416.540444 215.324444H397.084444c-3.413333 0-6.087111 3.015111-6.087111 6.769778v21.504c0 3.754667 2.844444 6.712889 6.087111 6.712889h19.456c3.413333 0 6.087111-2.958222 6.087112-6.712889v-21.504c0.113778-3.640889-2.673778-6.826667-6.087112-6.826666z m0 162.702223H397.084444c-3.413333 0-6.087111 3.128889-6.087111 6.826666v21.447111c0 3.754667 2.844444 6.769778 6.087111 6.769778h19.456c3.413333 0 6.087111-3.015111 6.087112-6.769778v-21.504c0.113778-3.640889-2.673778-6.712889-6.087112-6.712888z m0-108.430223H397.084444c-3.413333 0-6.087111 3.015111-6.087111 6.769778v21.504c0 3.754667 2.844444 6.712889 6.087111 6.712889h19.456c3.413333 0 6.087111-2.958222 6.087112-6.712889v-21.504c0.113778-3.754667-2.673778-6.769778-6.087112-6.769778z m-81.635555 552.049778h-5.916445c30.094222-13.880889 51.256889-47.786667 51.256889-87.324444 0-51.939556-36.579556-94.037333-81.635555-94.037334s-81.692444 42.097778-81.692445 94.037334c0 39.537778 21.219556 73.443556 51.313778 87.324444H262.257778c-50.119111 0-90.737778 46.705778-90.737778 104.561778v41.756444h254.065778v-41.756444c0-57.742222-40.618667-104.561778-90.737778-104.561778z m140.515555-552.049778h-19.342222c-3.413333 0-6.144 3.015111-6.144 6.769778v21.504c0 3.754667 2.787556 6.712889 6.087111 6.712889h19.456c3.413333 0 6.087111-2.958222 6.087111-6.712889v-21.504c0.113778-3.754667-2.673778-6.769778-6.087111-6.769778z m-58.88 54.272H397.084444c-3.413333 0-6.087111 3.015111-6.087111 6.826667v21.447111c0 3.754667 2.844444 6.769778 6.087111 6.769778h19.456c3.413333 0 6.087111-3.015111 6.087112-6.826667v-21.447111c0.113778-3.754667-2.673778-6.769778-6.087112-6.769778z m203.320889-108.544h-19.399111c-3.413333 0-6.144 3.015111-6.144 6.769778v21.504c0 3.754667 2.844444 6.712889 6.144 6.712889h19.399111c3.413333 0 6.087111-2.958222 6.087111-6.712889v-21.504c0-3.640889-2.673778-6.826667-6.087111-6.826666z m0-54.158222h-19.399111c-3.413333 0-6.144 2.958222-6.144 6.712889v21.504c0 3.811556 2.844444 6.826667 6.144 6.826667h19.399111c3.413333 0 6.087111-3.015111 6.087111-6.826667v-21.504c0-3.754667-2.673778-6.712889-6.087111-6.712889z m0 108.430222h-19.399111c-3.413333 0-6.144 3.015111-6.144 6.769778v21.504c0 3.754667 2.844444 6.712889 6.144 6.712889h19.399111c3.413333 0 6.087111-2.958222 6.087111-6.712889v-21.504c0-3.754667-2.673778-6.769778-6.087111-6.769778z m147.342223-268.743111H253.838222C209.066667 0.853333 172.771556 41.073778 172.771556 90.737778v359.082666c0 49.664 36.295111 89.884444 81.066666 89.884445h101.944889L338.887111 614.4s76.629333-16.042667 112.924445-74.752h144.668444C632.775111 598.414222 709.404444 614.4 709.404444 614.4l-16.839111-74.752h74.922667c44.771556 0 81.066667-40.220444 81.066667-89.884444V90.567111c-0.227556-49.493333-36.636444-89.713778-81.351111-89.713778zM699.392 458.581333c0 3.811556-2.844444 6.769778-6.144 6.769778H327.736889c-3.413333 0-6.087111-2.958222-6.087111-6.769778v-22.016c0-3.754667 2.787556-6.769778 6.087111-6.769777h18.432V135.793778a19.342222 19.342222 0 0 1 10.410667-17.635556L502.954667 48.583111a15.815111 15.815111 0 0 1 16.327111 1.706667 19.683556 19.683556 0 0 1 7.736889 15.928889v363.690666h19.683555v-314.026666c0-6.883556 3.299556-13.198222 8.647111-16.668445 5.404444-3.413333 12.003556-3.413333 17.294223 0.113778L666.282667 159.857778c5.290667 3.413333 8.590222 9.784889 8.590222 16.497778v253.383111h18.375111c3.413333 0 6.144 3.015111 6.144 6.769777v22.186667zM475.477333 161.166222h-19.456c-3.413333 0-6.087111 2.958222-6.087111 6.712889v21.504c0 3.811556 2.787556 6.826667 6.087111 6.826667h19.456c3.413333 0 6.087111-3.015111 6.087111-6.826667v-21.504c0.113778-3.754667-2.673778-6.712889-6.087111-6.712889z m144.384 162.702222h-19.399111c-3.413333 0-6.144 3.015111-6.144 6.826667v21.447111c0 3.754667 2.844444 6.769778 6.144 6.769778h19.399111c3.413333 0 6.087111-3.015111 6.087111-6.826667v-21.447111c0-3.754667-2.673778-6.769778-6.087111-6.769778zM475.477333 106.951111h-19.456c-3.413333 0-6.087111 2.958222-6.087111 6.712889v21.617778c0 3.754667 2.787556 6.769778 6.087111 6.769778h19.456c3.413333 0 6.087111-3.015111 6.087111-6.769778v-21.617778c0.113778-3.754667-2.673778-6.712889-6.087111-6.712889z m0 108.430222h-19.456c-3.413333 0-6.087111 3.015111-6.087111 6.769778v21.504c0 3.754667 2.787556 6.712889 6.087111 6.712889h19.456c3.413333 0 6.087111-2.958222 6.087111-6.712889v-21.504c0.113778-3.640889-2.673778-6.826667-6.087111-6.826667z m144.384 162.702223h-19.399111c-3.413333 0-6.144 3.128889-6.144 6.826666v21.447111c0 3.754667 2.844444 6.769778 6.144 6.769778h19.399111c3.413333 0 6.087111-3.015111 6.087111-6.769778v-21.504c0-3.640889-2.673778-6.712889-6.087111-6.712889z m136.647111 443.619555h-5.859555c30.094222-13.880889 51.256889-47.786667 51.256889-87.324444 0-51.939556-36.579556-94.037333-81.635556-94.037334-45.112889 0-81.692444 42.097778-81.692444 94.037334 0 39.537778 21.219556 73.443556 51.256889 87.324444h-5.859556c-50.119111 0-90.794667 46.705778-90.794667 104.561778v41.756444h254.122667v-41.756444c-0.113778-57.742222-40.732444-104.561778-90.794667-104.561778z" fill="#4B89FF" /></svg>